<svg width="1075" height="725" viewBox="0 0 1075 725" fill="none" xmlns="http://www.w3.org/2000/svg">
<g clip-path="url(#clip0)">
<path d="M540.644 584.231C831.974 584.231 1068.14 568.596 1068.14 549.309C1068.14 530.023 831.974 514.388 540.644 514.388C249.313 514.388 13.1436 530.023 13.1436 549.309C13.1436 568.596 249.313 584.231 540.644 584.231Z" fill="#F2F2F2"/>
<path d="M520.426 167.01C434.482 167.01 372.775 222.149 372.775 350.808C372.775 496.621 434.482 535.218 520.426 535.218C606.37 535.218 671.753 492.945 671.753 350.808C671.753 198.868 606.37 167.01 520.426 167.01ZM520.991 486.818C461.464 486.818 430.365 451.895 430.365 350.902C430.365 261.79 462.737 214.797 522.264 214.797C581.791 214.797 614.163 245.665 614.163 350.902C614.163 449.349 580.517 486.818 520.991 486.818Z" fill="#454547"/>
<path d="M321.311 433.517H285.777V328.877C285.777 323.32 283.569 317.989 279.639 314.059C275.709 310.129 270.379 307.922 264.821 307.922H256.495C253.743 307.922 251.018 308.464 248.475 309.517C245.933 310.57 243.623 312.113 241.677 314.059C239.731 316.005 238.187 318.315 237.134 320.858C236.081 323.4 235.539 326.125 235.539 328.877V433.517H135.309C133.247 433.517 131.22 432.984 129.425 431.97C127.629 430.955 126.127 429.494 125.062 427.728C123.998 425.962 123.408 423.951 123.35 421.89C123.292 419.829 123.768 417.788 124.731 415.965L230.813 215.184C232.136 212.681 232.938 209.936 233.17 207.114C233.402 204.293 233.06 201.453 232.165 198.768C231.27 196.082 229.839 193.605 227.961 191.487C226.082 189.37 223.793 187.654 221.233 186.446L214.971 183.488C210.108 181.192 204.549 180.853 199.443 182.541C194.338 184.23 190.077 187.816 187.542 192.558L58.16 434.591C55.9568 438.712 54.8042 443.314 54.8042 447.987C54.8042 451.719 55.5392 455.414 56.9672 458.861C58.3953 462.309 60.4884 465.441 63.127 468.08C65.7657 470.719 68.8982 472.812 72.3458 474.24C75.7933 475.668 79.4884 476.403 83.22 476.403H235.539V542.57C235.539 545.869 236.189 549.135 237.451 552.183C238.713 555.23 240.563 557.999 242.896 560.332C245.229 562.664 247.998 564.515 251.045 565.777C254.093 567.039 257.359 567.689 260.658 567.689H260.658C263.957 567.689 267.223 567.039 270.27 565.777C273.318 564.515 276.087 562.664 278.42 560.332C280.752 557.999 282.602 555.23 283.865 552.183C285.127 549.135 285.777 545.869 285.777 542.57V476.403H321.311C326.998 476.403 332.452 474.144 336.474 470.122C340.495 466.101 342.754 460.647 342.754 454.96C342.754 449.273 340.495 443.819 336.474 439.797C332.452 435.776 326.998 433.517 321.311 433.517Z" fill="#5F66F1"/>
<path d="M979.308 433.517H943.773V328.877C943.773 323.32 941.566 317.989 937.636 314.059C933.706 310.129 928.375 307.922 922.818 307.922H914.491C911.739 307.922 909.014 308.464 906.472 309.517C903.929 310.57 901.619 312.113 899.673 314.059C897.727 316.005 896.184 318.315 895.131 320.858C894.077 323.4 893.535 326.125 893.535 328.877V433.517H793.305C791.243 433.517 789.216 432.984 787.421 431.97C785.626 430.955 784.123 429.494 783.059 427.728C781.995 425.962 781.405 423.951 781.347 421.89C781.289 419.829 781.764 417.788 782.728 415.965L888.81 215.184C890.133 212.681 890.934 209.936 891.167 207.114C891.399 204.293 891.057 201.453 890.162 198.768C889.266 196.082 887.836 193.605 885.957 191.487C884.078 189.37 881.79 187.654 879.23 186.446L872.967 183.488C868.105 181.192 862.546 180.853 857.44 182.541C852.334 184.23 848.073 187.816 845.538 192.558L716.157 434.591C713.953 438.712 712.801 443.314 712.801 447.987C712.801 455.523 715.795 462.751 721.124 468.08C726.453 473.409 733.68 476.403 741.217 476.403H893.535V542.57C893.535 549.232 896.182 555.621 900.893 560.332C905.603 565.043 911.992 567.689 918.654 567.689C925.316 567.689 931.705 565.043 936.416 560.332C941.127 555.621 943.773 549.232 943.773 542.57V476.403H979.308C984.995 476.403 990.449 474.144 994.47 470.122C998.492 466.101 1000.75 460.647 1000.75 454.96C1000.75 449.273 998.492 443.819 994.47 439.797C990.449 435.776 984.995 433.517 979.308 433.517Z" fill="#5F66F1"/>
<path d="M331.114 421.264H295.58V316.624C295.58 313.872 295.038 311.147 293.984 308.605C292.931 306.062 291.388 303.752 289.442 301.806C287.496 299.86 285.186 298.317 282.643 297.263C280.101 296.21 277.376 295.668 274.624 295.668H266.297C260.74 295.668 255.409 297.876 251.479 301.806C247.549 305.736 245.342 311.066 245.342 316.624V421.264H145.111C143.05 421.264 141.023 420.731 139.227 419.716C137.432 418.702 135.929 417.241 134.865 415.475C133.801 413.709 133.211 411.698 133.153 409.637C133.095 407.576 133.571 405.535 134.534 403.712L240.616 202.931C241.939 200.428 242.74 197.683 242.973 194.861C243.205 192.04 242.863 189.2 241.968 186.514C241.073 183.828 239.642 181.352 237.763 179.234C235.884 177.116 233.596 175.401 231.036 174.192L224.774 171.235C219.911 168.939 214.352 168.6 209.246 170.288C204.141 171.976 199.879 175.563 197.344 180.305L67.9628 422.338C65.7596 426.459 64.6069 431.06 64.6069 435.734V435.734C64.6069 443.27 67.6007 450.498 72.9297 455.827C78.2587 461.156 85.4864 464.15 93.0228 464.15H245.342V530.317C245.342 533.616 245.991 536.882 247.254 539.93C248.516 542.977 250.366 545.746 252.699 548.079C255.031 550.411 257.8 552.262 260.848 553.524C263.895 554.786 267.162 555.436 270.461 555.436H270.461C277.123 555.436 283.512 552.789 288.222 548.079C292.933 543.368 295.58 536.979 295.58 530.317V464.15H331.114C333.93 464.15 336.718 463.595 339.32 462.517C341.921 461.44 344.285 459.86 346.276 457.869C348.268 455.878 349.847 453.514 350.925 450.913C352.002 448.311 352.557 445.523 352.557 442.707V442.707C352.557 439.891 352.002 437.102 350.925 434.501C349.847 431.899 348.268 429.535 346.276 427.544C344.285 425.553 341.921 423.973 339.32 422.896C336.718 421.818 333.93 421.264 331.114 421.264V421.264Z" stroke="#454547" stroke-miterlimit="10"/>
<path d="M997.688 421.264H962.153V316.624C962.153 311.066 959.946 305.736 956.016 301.806C952.086 297.876 946.755 295.668 941.198 295.668H932.871C930.119 295.668 927.394 296.21 924.852 297.263C922.309 298.317 919.999 299.86 918.053 301.806C916.107 303.752 914.564 306.062 913.51 308.605C912.457 311.147 911.915 313.872 911.915 316.624V421.264H811.685C809.623 421.264 807.596 420.731 805.801 419.716C804.006 418.702 802.503 417.241 801.439 415.475C800.374 413.709 799.785 411.698 799.727 409.637C799.669 407.576 800.144 405.535 801.108 403.712L907.19 202.931C908.513 200.428 909.314 197.683 909.547 194.861C909.779 192.04 909.437 189.2 908.542 186.514C907.646 183.828 906.216 181.352 904.337 179.234C902.458 177.116 900.17 175.401 897.61 174.192L891.347 171.235C886.485 168.939 880.925 168.6 875.82 170.288C870.714 171.976 866.453 175.563 863.918 180.305L734.536 422.338C732.333 426.459 731.181 431.06 731.181 435.734C731.181 443.27 734.174 450.498 739.503 455.827C744.832 461.156 752.06 464.15 759.596 464.15H911.915V530.317C911.915 536.979 914.562 543.368 919.272 548.079C923.983 552.789 930.372 555.436 937.034 555.436V555.436C943.696 555.436 950.085 552.789 954.796 548.079C959.507 543.368 962.153 536.979 962.153 530.317V464.15H997.688C1000.5 464.15 1003.29 463.595 1005.89 462.517C1008.5 461.44 1010.86 459.86 1012.85 457.869C1014.84 455.878 1016.42 453.514 1017.5 450.913C1018.58 448.311 1019.13 445.523 1019.13 442.707V442.707C1019.13 437.02 1016.87 431.565 1012.85 427.544C1008.83 423.523 1003.37 421.264 997.688 421.264V421.264Z" stroke="#454547" stroke-miterlimit="10"/>
<path d="M540.031 155.982C454.087 155.982 392.38 211.121 392.38 339.78C392.38 485.593 454.087 524.19 540.031 524.19C625.975 524.19 691.358 481.917 691.358 339.78C691.358 187.84 625.975 155.982 540.031 155.982ZM540.596 475.79C481.069 475.79 449.97 440.867 449.97 339.874C449.97 250.762 482.342 203.769 541.869 203.769C601.396 203.769 633.768 234.637 633.768 339.874C633.768 438.321 600.123 475.79 540.596 475.79V475.79Z" stroke="#454547" stroke-miterlimit="10"/>
<path d="M471.141 31.1516C478.266 31.1516 484.042 25.3755 484.042 18.2504C484.042 11.1253 478.266 5.34924 471.141 5.34924C464.016 5.34924 458.24 11.1253 458.24 18.2504C458.24 25.3755 464.016 31.1516 471.141 31.1516Z" fill="#454547"/>
<path d="M502.607 93.7695C522.592 93.7695 538.794 72.7785 538.794 46.8848C538.794 20.991 522.592 0 502.607 0C482.622 0 466.421 20.991 466.421 46.8848C466.421 72.7785 482.622 93.7695 502.607 93.7695Z" fill="#454547"/>
<path opacity="0.1" d="M502.607 79.6097C484.48 79.6097 469.466 62.3392 466.832 39.8049C466.558 42.1549 466.42 44.5188 466.421 46.8848C466.421 72.7785 482.622 93.7695 502.607 93.7695C522.592 93.7695 538.794 72.7785 538.794 46.8848C538.794 44.5188 538.657 42.1549 538.383 39.8049C535.749 62.3392 520.735 79.6097 502.607 79.6097Z" fill="#454547"/>
<path d="M576.242 184.189C575.465 187.382 572.114 189.94 568.403 191.727C560.602 195.483 550.978 196.605 541.644 196.981C539.262 197.126 536.873 197.081 534.499 196.849C529.898 196.404 525.582 194.42 522.249 191.217C522.011 191.062 521.816 190.849 521.683 190.599C521.549 190.348 521.481 190.067 521.486 189.783C521.49 189.499 521.566 189.221 521.707 188.975C521.849 188.728 522.05 188.521 522.292 188.374C527.262 182.915 535.555 179.567 543.909 177.157C550.243 175.33 561.29 170.597 568.199 171.235C574.89 171.854 577.223 180.157 576.242 184.189Z" fill="#454547"/>
<path opacity="0.1" d="M576.242 184.189C575.465 187.382 572.114 189.94 568.403 191.727C560.602 195.483 550.978 196.605 541.644 196.981C539.262 197.126 536.873 197.081 534.499 196.849C529.898 196.404 525.582 194.42 522.249 191.217C522.011 191.062 521.816 190.849 521.683 190.599C521.549 190.348 521.481 190.067 521.486 189.783C521.49 189.499 521.566 189.221 521.707 188.975C521.849 188.728 522.05 188.521 522.292 188.374C527.262 182.915 535.555 179.567 543.909 177.157C550.243 175.33 561.29 170.597 568.199 171.235C574.89 171.854 577.223 180.157 576.242 184.189Z" fill="#454547"/>
<path d="M477.044 160.321C474.662 164.989 474.231 170.411 475.845 175.396C477.487 180.344 480.56 184.693 484.674 187.893C494.769 195.985 508.662 197.098 521.599 196.986C532.937 196.887 544.259 196.111 555.505 194.662C559.273 194.328 562.976 193.468 566.506 192.108C570.728 190.281 574.439 186.93 575.942 182.582C577.445 178.234 576.378 172.909 572.808 170.008C569.671 167.458 565.345 167.107 561.31 166.865L538.223 165.477C540.504 163.169 543.541 161.863 546.319 160.185C550.004 157.959 552.452 154.22 555.132 150.85C559.26 145.916 563.752 141.297 568.57 137.033C569.322 141.344 572.048 144.883 575.258 147.857C578.467 150.831 582.166 153.226 585.502 156.057C593.58 162.916 599.397 172.224 607.894 178.558C613.738 177.022 619.202 174.294 623.942 170.546L620.64 164.564C620.365 163.949 619.937 163.414 619.396 163.011C618.461 162.436 617.256 162.733 616.171 162.57C613.27 162.135 612.003 158.786 610.865 156.083C607.74 148.661 601.757 142.903 596.647 136.679C592.875 132.084 589.53 127.157 586.651 121.956C584.934 118.854 583.363 115.625 581.034 112.953C578.704 110.281 575.44 108.18 571.895 108.172C568.763 108.166 565.874 109.756 563.181 111.355C554.979 116.227 547.087 121.604 539.551 127.454C535.607 130.516 531.688 133.751 527.061 135.628C525.114 136.419 523.061 136.959 521.192 137.92C517.919 139.605 515.435 142.455 512.761 144.985C503.223 154.008 490.165 159.854 477.044 160.321Z" fill="#454547"/>
<path d="M525.32 96.098C525.213 98.8562 524.626 101.575 523.586 104.131C523.059 105.407 522.275 106.56 521.282 107.518C520.29 108.477 519.111 109.221 517.818 109.704C515.983 110.196 514.059 110.258 512.195 109.887C510.57 109.717 509.004 109.183 507.614 108.326C505.449 106.837 504.37 104.182 503.976 101.583C503.583 98.9866 503.759 96.334 503.507 93.7192C503.262 91.6071 502.86 89.5162 502.305 87.4637C502.135 86.7809 501.962 86.1012 501.792 85.4215C501.626 84.7419 501.462 84.0622 501.311 83.3825C501.173 82.7438 501.044 82.1018 500.933 81.4568C500.842 80.9124 500.76 80.3649 500.701 79.8142C500.645 78.1817 500.374 76.5638 499.892 75.0031C499.44 73.9908 498.874 73.0333 498.205 72.1491C497.919 71.74 497.642 71.3309 497.387 70.9061C496.65 69.8022 496.307 68.4816 496.415 67.1585C496.445 66.954 496.495 66.7527 496.563 66.5575C496.588 66.482 496.616 66.4065 496.648 66.3341C496.931 66.2573 497.191 66.1125 497.405 65.9123C497.62 65.7121 497.782 65.4627 497.878 65.1855C497.986 64.5902 497.935 63.9769 497.73 63.4077C497.495 62.6123 497.173 61.8451 496.771 61.1201C496.506 60.6418 495.609 59.7796 495.603 59.2321C495.59 58.1308 497.743 57.2434 498.614 56.8092C501.275 55.4769 504.242 54.8753 507.211 55.0659C509.115 55.1949 511.179 55.7802 512.23 57.3756C513.174 58.8136 513.048 60.6764 513.451 62.3473C513.493 62.5901 513.596 62.8184 513.75 63.0112C513.955 63.1983 514.213 63.317 514.489 63.351C514.955 63.4437 515.433 63.4629 515.905 63.4077H515.908C516.033 63.3978 516.157 63.3799 516.28 63.3542C517.015 63.2185 517.71 62.9184 518.312 62.4763C518.703 62.3724 519.096 62.2874 519.492 62.2214C519.508 62.2197 519.524 62.2166 519.54 62.2119C521.116 67.1867 521.321 72.5203 522.611 77.5864C523.249 80.1068 524.165 82.5958 524.294 85.1886C524.304 85.3019 524.307 85.4183 524.31 85.5347C524.329 86.3686 524.263 87.2087 524.297 88.0395C524.309 88.4135 524.351 88.786 524.423 89.1533C524.564 89.7442 524.74 90.3262 524.949 90.8966L524.958 90.9249C525.018 91.1074 525.074 91.2931 525.122 91.4787C525.156 91.614 525.188 91.7462 525.213 91.8815L525.216 91.8909C525.449 93.2814 525.484 94.6978 525.32 96.098Z" fill="#FBBEBE"/>
<path d="M503.237 63.5619C513.49 63.5619 521.802 55.25 521.802 44.9968C521.802 34.7435 513.49 26.4316 503.237 26.4316C492.984 26.4316 484.672 34.7435 484.672 44.9968C484.672 55.25 492.984 63.5619 503.237 63.5619Z" fill="#FBBEBE"/>
<path d="M621.103 146.148C620.565 141.083 618.765 136.234 615.867 132.045C616.349 134.909 616.831 137.771 617.315 140.632C616.714 140.806 616.075 140.801 615.477 140.617C614.879 140.433 614.347 140.079 613.948 139.597C613.166 138.621 612.568 137.511 612.182 136.321C610.073 131.085 607.315 126.135 603.973 121.586C592.154 120.601 580.471 115.702 570.077 109.99C559.681 104.282 549.952 97.4385 539.694 91.4882C537.915 90.4132 536.063 89.4668 534.149 88.6562C530.94 87.3692 527.337 86.7021 524.294 85.1886C524.089 85.0879 523.885 84.9809 523.684 84.8708C522.996 84.497 522.345 84.0598 521.739 83.5649C521.411 83.2989 521.1 83.0131 520.808 82.7091C519.289 80.9428 518.086 78.9291 517.249 76.7557C515.616 73.1433 515.033 68.7852 513.404 65.1729C514.153 64.4728 514.994 63.8788 515.905 63.4077H515.908C516.04 63.3384 516.173 63.2723 516.308 63.2094C516.953 62.9057 517.624 62.6603 518.312 62.4762C518.702 62.3724 519.096 62.2874 519.492 62.2214C519.508 62.2197 519.524 62.2166 519.539 62.2119C521.378 61.9124 523.262 62.0613 525.03 62.6462C527.617 63.5209 529.797 65.2673 531.972 66.9193C535.504 69.4079 538.892 72.0952 542.12 74.9684C543.913 76.6864 545.55 78.5744 547.478 80.1351C549.081 81.3722 550.771 82.4922 552.535 83.4863C562.972 89.704 573.411 95.9207 583.85 102.136C587.384 104.241 590.921 106.347 594.376 108.574C599.624 111.96 604.684 115.629 609.741 119.295C612.721 121.453 615.699 123.613 618.677 125.774C619.654 126.397 620.512 127.19 621.21 128.115C621.827 129.165 622.21 130.336 622.334 131.548C623.081 136.444 622.659 141.447 621.103 146.148Z" fill="#FBBEBE"/>
<path d="M529.923 110.06C528.671 115.676 522.994 119.072 520.027 124.005C516.339 130.129 517.843 137.246 519.228 144.26C516.698 146.441 514.167 148.622 511.635 150.802C510.238 152.001 508.841 153.206 507.337 154.267C505.144 155.736 502.852 157.052 500.477 158.206C498.237 159.358 495.996 160.511 493.756 161.664C491.673 162.835 489.466 163.77 487.176 164.452C482.762 165.585 478.073 164.792 473.706 163.48C473.191 163.345 472.695 163.143 472.233 162.879C471.961 162.716 471.723 162.501 471.535 162.246C471.104 161.474 470.947 160.579 471.091 159.707C471.534 152.357 473.331 145.16 475.122 138.017C476.079 133.732 477.365 129.527 478.97 125.44C480.544 121.938 482.353 118.547 484.385 115.289C486.628 111.191 489.285 107.333 492.315 103.776C493.79 102.407 495.031 100.806 495.99 99.0369C497.107 96.4882 496.676 93.5649 496.903 90.7896C497.076 88.7045 497.629 86.6686 498.536 84.7827V84.7796C499.02 83.7638 499.604 82.7983 500.279 81.8973C500.584 82.6084 500.889 83.3185 501.195 84.0275C501.396 84.4932 501.595 84.9579 501.792 85.4215C502.05 86.0194 502.306 86.6152 502.56 87.2088C503.293 88.9143 504.026 90.6187 504.757 92.3221C505.547 94.4675 506.672 96.4739 508.092 98.2661C508.741 99.1838 509.617 99.9176 510.634 100.396C511.651 100.874 512.775 101.08 513.895 100.994C515.016 100.908 516.095 100.533 517.028 99.9055C517.96 99.2779 518.714 98.4192 519.215 97.4133C520.273 95.5357 521.039 93.5081 521.487 91.4001C522.109 88.8335 522.194 86.1663 521.739 83.565C520.981 78.5556 518.85 73.4392 517.302 68.7853C516.672 67.2336 516.307 65.587 516.223 63.9143C516.226 63.7264 516.245 63.539 516.279 63.3542C516.289 63.307 516.298 63.2567 516.308 63.2095C516.953 62.9058 517.624 62.6604 518.312 62.4763C518.702 62.3725 519.096 62.2875 519.492 62.2214C520.855 69.5971 522.219 76.9728 523.586 84.3485C523.618 84.5216 523.652 84.6947 523.684 84.8709C523.879 85.9281 524.077 86.9854 524.297 88.0395C524.495 88.9961 524.709 89.9495 524.949 90.8967L524.958 90.925C525.04 91.246 525.125 91.5638 525.213 91.8816L525.216 91.891C525.458 92.7595 525.729 93.6216 526.034 94.4712C527.884 99.5908 531.11 104.745 529.923 110.06Z" fill="#5F66F1"/>
<path d="M605.267 188.993C605.209 190.075 605.419 191.154 605.877 192.136C607.039 194.259 609.827 194.742 612.24 194.941C626.332 196.099 640.51 195.667 654.505 193.653C655.265 193.601 656.001 193.372 656.657 192.985C658.647 191.59 657.42 188.19 655.247 187.102C653.074 186.013 650.496 186.276 648.112 185.804C645.743 185.208 643.488 184.23 641.434 182.908C636.599 180.13 631.835 177.234 627.141 174.22C624.346 172.425 621.048 170.51 617.901 171.574C609.376 174.458 605.211 179.796 605.267 188.993Z" fill="#454547"/>
<path d="M501.383 82.9892V82.9923C501.361 83.1245 501.339 83.2535 501.311 83.3825C501.276 83.5965 501.235 83.8136 501.195 84.0275C500.804 86.0256 500.326 88.0143 499.775 89.9904C498.265 95.4498 496.242 100.821 494.234 106.114C488.847 120.305 483.459 134.497 478.07 148.691C476.711 152.265 475.354 155.843 473.809 159.345C473.293 160.513 472.762 161.689 472.233 162.879C470.339 167.136 468.52 171.532 467.916 176.063C467.353 179.045 467.288 182.1 467.724 185.103C468.328 188.074 470.131 190.975 472.954 192.073C474.332 192.611 476.305 193.332 475.927 194.764C475.723 195.55 474.829 195.934 474.027 196.066C472.967 196.235 471.883 196.169 470.852 195.872C469.821 195.575 468.868 195.055 468.061 194.348C466.553 193.011 465.395 190.931 463.391 190.708C462.003 190.557 460.726 191.387 459.454 191.969C454.269 194.339 448.227 192.681 442.781 190.997C443.208 188.791 445.424 187.338 447.623 186.897C449.823 186.453 452.098 186.768 454.341 186.708C455.06 186.747 455.773 186.563 456.383 186.183C456.931 185.68 457.315 185.025 457.485 184.301C458.93 180.019 460.005 175.621 460.697 171.155C461.421 166.488 461.723 161.749 462.755 157.139C463.558 153.543 464.797 150.06 465.861 146.529C467.918 139.26 469.606 131.892 470.921 124.452C471.585 121.362 472.061 118.233 472.346 115.085C472.526 112.473 472.441 109.849 472.692 107.246C473.115 103.861 473.821 100.517 474.804 97.2497C475.767 93.6845 476.728 90.1215 477.689 86.5606C479.115 81.29 480.644 75.8149 484.256 71.7179C485.511 70.2756 487.048 69.1064 488.773 68.2826C490.498 67.4588 492.374 66.998 494.285 66.9288C495.001 66.9279 495.715 67.0049 496.415 67.1585C496.531 67.1868 496.648 67.2151 496.764 67.2466C497.526 67.4459 498.258 67.7487 498.938 68.1465C500.052 67.4385 500.619 67.6871 501.358 68.779C502.006 69.9345 502.312 71.2509 502.239 72.5738C502.302 76.0655 502.015 79.5546 501.383 82.9892Z" fill="#FBBEBE"/>
<path d="M502.607 87.1616L502.56 87.2088L502.305 87.4637L499.776 89.9904L498.536 84.7827L494.285 66.9287C495.001 66.9279 495.715 67.0049 496.415 67.1584C496.445 66.9539 496.495 66.7527 496.563 66.5574L496.764 67.2465L498.205 72.149L500.933 81.4567L501.383 82.9891V82.9923L502.607 87.1616Z" fill="#5F66F1"/>
<path d="M518.661 30.2028C518.659 31.856 518.331 33.4926 517.696 35.019C517.061 36.5454 516.132 37.9317 514.961 39.0986C514.537 39.5234 514.082 39.9166 513.601 40.275C511.429 41.9119 508.784 42.7979 506.065 42.7991H490.969C487.633 42.794 484.436 41.4653 482.079 39.1047C479.722 36.7441 478.398 33.5447 478.398 30.209C478.398 26.8732 479.722 23.6738 482.079 21.3132C484.436 18.9527 487.633 17.6239 490.969 17.6188H506.065C509.401 17.6275 512.598 18.9557 514.958 21.3134C517.318 23.6712 518.649 26.8669 518.661 30.2028Z" fill="#454547"/>
<path d="M532.815 31.1516C539.94 31.1516 545.716 25.3755 545.716 18.2504C545.716 11.1253 539.94 5.34924 532.815 5.34924C525.69 5.34924 519.914 11.1253 519.914 18.2504C519.914 25.3755 525.69 31.1516 532.815 31.1516Z" fill="#454547"/>
<path opacity="0.1" d="M532.5 5.34924C532.342 5.34924 532.185 5.35553 532.028 5.36118C535.366 5.48251 538.526 6.89359 540.844 9.29753C543.162 11.7015 544.457 14.9109 544.457 18.2504C544.457 21.59 543.162 24.7994 540.844 27.2033C538.526 29.6073 535.366 31.0183 532.028 31.1397C532.185 31.1453 532.342 31.1516 532.5 31.1516C535.922 31.1516 539.203 29.7924 541.623 27.3729C544.042 24.9535 545.401 21.672 545.401 18.2504C545.401 14.8288 544.042 11.5474 541.623 9.12791C539.203 6.70847 535.922 5.34924 532.5 5.34924Z" fill="#454547"/>
<path opacity="0.1" d="M471.141 5.34924C471.299 5.34924 471.456 5.35553 471.613 5.36118C468.276 5.48251 465.115 6.89359 462.797 9.29753C460.479 11.7015 459.184 14.9109 459.184 18.2504C459.184 21.59 460.479 24.7994 462.797 27.2033C465.115 29.6073 468.276 31.0183 471.613 31.1397C471.456 31.1453 471.299 31.1516 471.141 31.1516C467.721 31.1486 464.443 29.788 462.026 27.3689C459.609 24.9498 458.251 21.6701 458.251 18.2504C458.251 14.8308 459.609 11.551 462.026 9.13193C464.443 6.71281 467.721 5.35225 471.141 5.34924Z" fill="#454547"/>
<path opacity="0.1" d="M513.601 40.275C511.429 41.9119 508.784 42.7979 506.065 42.7991H490.969C488.25 42.7978 485.605 41.9119 483.433 40.275H513.601Z" fill="#454547"/>
<path d="M611.085 133.756C611.085 133.756 614.338 143.128 617.314 140.632L614.942 128.382L611.085 133.756Z" fill="#FBBEBE"/>
<path d="M1006.86 419.55C1009.89 420.651 1013.14 421.034 1016.34 420.667C1019.54 420.301 1022.62 419.196 1025.32 417.439C1028.02 415.683 1030.28 413.322 1031.91 410.544C1033.55 407.766 1034.51 404.647 1034.74 401.431C1034.96 398.216 1034.43 394.992 1033.2 392.015C1031.96 389.038 1030.05 386.388 1027.62 384.275C1025.19 382.161 1022.3 380.642 1019.17 379.837C1016.05 379.032 1012.79 378.962 1009.64 379.634L1010.16 390.347L1005.09 381.166C1000.11 383.503 996.271 387.72 994.405 392.889C993.742 394.699 993.338 396.595 993.207 398.519C992.887 403.032 994.048 407.527 996.512 411.322C998.976 415.117 1002.61 418.006 1006.86 419.55Z" fill="#57B894"/>
<path d="M1031.94 543.793C1030.15 534.683 1037.9 526.606 1045.56 521.357C1053.22 516.107 1062.17 510.949 1064.78 502.04C1068.53 489.236 1057.35 477.51 1048.64 467.398C1042.19 459.894 1036.64 451.65 1032.12 442.841C1030.31 439.308 1028.65 435.615 1028.17 431.674C1027.48 425.999 1029.31 420.351 1031.14 414.938C1037.26 396.903 1043.8 379.02 1050.77 361.288" stroke="#454547" stroke-miterlimit="10"/>
<path d="M1007.72 416.792C1010.75 417.893 1013.99 418.276 1017.2 417.909C1020.4 417.543 1023.47 416.438 1026.17 414.682C1028.88 412.925 1031.13 410.565 1032.77 407.787C1034.4 405.009 1035.37 401.889 1035.59 398.673C1035.82 395.458 1035.29 392.234 1034.06 389.257C1032.82 386.28 1030.91 383.63 1028.48 381.517C1026.04 379.403 1023.15 377.884 1020.03 377.079C1016.91 376.274 1013.64 376.204 1010.49 376.876L1011.01 387.589L1005.95 378.408C1000.97 380.745 997.129 384.962 995.262 390.131C994.599 391.941 994.196 393.837 994.065 395.761C993.745 400.274 994.905 404.769 997.369 408.564C999.833 412.359 1003.47 415.248 1007.72 416.792V416.792Z" stroke="#454547" stroke-miterlimit="10"/>
<path d="M1029.4 357.588C1030.59 354.308 1032.58 351.38 1035.2 349.073C1037.82 346.767 1040.97 345.157 1044.38 344.391L1046.09 354.574L1049.27 343.879C1053.68 343.944 1057.96 345.41 1061.48 348.064C1065 350.718 1067.59 354.423 1068.87 358.645C1070.15 362.866 1070.06 367.386 1068.6 371.551C1067.15 375.715 1064.41 379.31 1060.78 381.815C1057.15 384.32 1052.81 385.607 1048.4 385.489C1043.99 385.371 1039.73 383.854 1036.24 381.158C1032.75 378.462 1030.21 374.726 1028.98 370.49C1027.74 366.253 1027.89 361.735 1029.4 357.588H1029.4Z" fill="#57B894"/>
<path d="M1030.54 353.911C1031.73 350.631 1033.72 347.703 1036.34 345.396C1038.96 343.09 1042.12 341.479 1045.52 340.713L1047.23 350.897L1050.41 340.201C1054.82 340.267 1059.1 341.732 1062.62 344.387C1066.15 347.041 1068.74 350.746 1070.02 354.968C1071.3 359.189 1071.2 363.709 1069.75 367.873C1068.29 372.038 1065.55 375.633 1061.92 378.138C1058.29 380.643 1053.96 381.93 1049.55 381.812C1045.14 381.694 1040.88 380.177 1037.38 377.481C1033.89 374.785 1031.35 371.049 1030.12 366.813C1028.89 362.576 1029.04 358.058 1030.54 353.911H1030.54Z" stroke="#454547" stroke-miterlimit="10"/>
<path d="M1044.99 467.604C1049.8 469.347 1055.07 469.261 1059.82 467.363C1064.56 465.464 1068.44 461.886 1070.72 457.311C1072.99 452.735 1073.51 447.482 1072.16 442.553C1070.81 437.623 1067.7 433.362 1063.41 430.582L1060.97 438.801L1059.24 428.497C1059.22 428.489 1059.2 428.482 1059.18 428.477C1056.62 427.543 1053.89 427.125 1051.16 427.246C1048.42 427.367 1045.74 428.025 1043.27 429.182C1040.79 430.339 1038.56 431.973 1036.72 433.991C1034.87 436.008 1033.44 438.369 1032.51 440.94C1031.58 443.51 1031.16 446.238 1031.29 448.97C1031.41 451.701 1032.07 454.381 1033.23 456.857C1034.39 459.334 1036.02 461.557 1038.04 463.401C1040.06 465.245 1042.42 466.674 1044.99 467.604H1044.99Z" fill="#57B894"/>
<path d="M1045.98 463.88C1050.79 465.622 1056.06 465.536 1060.81 463.638C1065.55 461.74 1069.43 458.162 1071.71 453.586C1073.99 449.011 1074.5 443.758 1073.15 438.828C1071.8 433.899 1068.69 429.638 1064.4 426.857L1061.96 435.076L1060.23 424.772C1060.21 424.764 1060.19 424.758 1060.17 424.752C1057.61 423.818 1054.88 423.4 1052.15 423.521C1049.41 423.642 1046.73 424.3 1044.26 425.457C1041.78 426.615 1039.55 428.249 1037.71 430.266C1035.86 432.284 1034.43 434.645 1033.5 437.215C1032.57 439.785 1032.15 442.514 1032.28 445.245C1032.4 447.976 1033.06 450.656 1034.22 453.133C1035.38 455.609 1037.01 457.833 1039.03 459.677C1041.05 461.521 1043.41 462.949 1045.98 463.88H1045.98Z" stroke="#454547" stroke-miterlimit="10"/>
<path d="M1023.32 502.167C1024.15 506.867 1026.57 511.14 1030.17 514.27C1033.77 517.4 1038.34 519.195 1043.11 519.356C1047.88 519.517 1052.56 518.032 1056.37 515.152C1060.17 512.272 1062.87 508.171 1064.01 503.537C1065.15 498.903 1064.66 494.018 1062.63 489.701C1060.59 485.384 1057.14 481.897 1052.84 479.826C1048.54 477.755 1043.66 477.225 1039.02 478.326C1034.37 479.426 1030.25 482.09 1027.33 485.87L1036.61 499.826L1023.94 492.418C1022.95 495.572 1022.74 498.915 1023.32 502.167Z" fill="#57B894"/>
<path d="M1024.18 499.409C1025.01 504.109 1027.42 508.382 1031.03 511.512C1034.63 514.642 1039.2 516.437 1043.97 516.598C1048.74 516.759 1053.42 515.274 1057.22 512.394C1061.03 509.514 1063.73 505.413 1064.87 500.779C1066.01 496.145 1065.52 491.26 1063.49 486.943C1061.45 482.626 1058 479.139 1053.7 477.068C1049.4 474.997 1044.52 474.467 1039.87 475.568C1035.23 476.668 1031.1 479.332 1028.19 483.112L1037.46 497.068L1024.79 489.661C1023.81 492.814 1023.6 496.157 1024.18 499.409V499.409Z" stroke="#454547" stroke-miterlimit="10"/>
<path d="M9.00746 470.249C10.9978 470.972 13.1289 471.224 15.2329 470.983C17.337 470.743 19.3563 470.017 21.1319 468.862C22.9075 467.708 24.3908 466.157 25.4648 464.332C26.5388 462.507 27.1742 460.457 27.3208 458.345C27.4675 456.232 27.1215 454.114 26.3101 452.158C25.4987 450.202 24.244 448.461 22.645 447.073C21.0459 445.684 19.1463 444.686 17.0957 444.157C15.0451 443.628 12.8997 443.582 10.8285 444.024L11.1707 451.062L7.84085 445.03C4.57278 446.566 2.04805 449.336 0.821494 452.732C0.385892 453.922 0.121078 455.167 0.034953 456.431C-0.17523 459.397 0.586979 462.35 2.20607 464.843C3.82517 467.337 6.2129 469.234 9.00746 470.249Z" fill="#57B894"/>
<path d="M25.4837 551.879C24.3083 545.893 29.4017 540.587 34.4329 537.138C39.464 533.689 45.3427 530.3 47.0593 524.446C49.5264 516.034 42.1776 508.33 36.4579 501.686C32.2144 496.756 28.5702 491.34 25.6016 485.551C24.311 483.278 23.4319 480.794 23.0049 478.215C22.5539 474.486 23.7519 470.775 24.9588 467.219C28.9794 455.37 33.2782 443.62 37.8551 431.97" stroke="#454547" stroke-miterlimit="10"/>
<path d="M9.5707 468.437C11.561 469.16 13.6921 469.412 15.7962 469.171C17.9002 468.931 19.9196 468.205 21.6952 467.05C23.4707 465.896 24.954 464.345 26.028 462.52C27.102 460.695 27.7374 458.645 27.884 456.533C28.0307 454.42 27.6847 452.302 26.8733 450.346C26.0619 448.39 24.8072 446.649 23.2082 445.261C21.6092 443.872 19.7095 442.874 17.6589 442.345C15.6083 441.816 13.4629 441.77 11.3917 442.212L11.734 449.25L8.40409 443.218C5.13601 444.754 2.61128 447.524 1.38473 450.92C0.94913 452.11 0.68432 453.355 0.59819 454.619C0.387993 457.585 1.1502 460.538 2.76929 463.031C4.38839 465.525 6.77613 467.422 9.5707 468.437V468.437Z" stroke="#454547" stroke-miterlimit="10"/>
<path d="M23.8124 429.539C24.5935 427.384 25.9044 425.46 27.6244 423.945C29.3444 422.429 31.4181 421.371 33.6545 420.868L34.7803 427.559L36.8677 420.532C39.7659 420.575 42.5754 421.537 44.8907 423.281C47.206 425.025 48.9071 427.46 49.7486 430.233C50.5901 433.007 50.5283 435.976 49.5723 438.712C48.6162 441.449 46.8152 443.81 44.4295 445.456C42.0437 447.102 39.1966 447.948 36.2991 447.87C33.4016 447.793 30.6038 446.796 28.3095 445.025C26.0152 443.254 24.3432 440.799 23.5349 438.016C22.7265 435.232 22.8237 432.264 23.8124 429.539Z" fill="#57B894"/>
<path d="M24.5634 427.123C25.3444 424.968 26.6554 423.044 28.3754 421.529C30.0954 420.013 32.1691 418.955 34.4054 418.452L35.5313 425.143L37.6187 418.116C40.5169 418.158 43.3264 419.121 45.6417 420.865C47.9569 422.609 49.6581 425.044 50.4996 427.817C51.3411 430.591 51.2793 433.56 50.3232 436.296C49.3671 439.033 47.5662 441.394 45.1804 443.04C42.7947 444.686 39.9475 445.532 37.0501 445.454C34.1526 445.377 31.3547 444.38 29.0605 442.609C26.7662 440.838 25.0942 438.383 24.2858 435.599C23.4775 432.816 23.5747 429.848 24.5634 427.123V427.123Z" stroke="#454547" stroke-miterlimit="10"/>
<path d="M34.0576 501.822C37.214 502.967 40.6813 502.91 43.7987 501.663C46.9162 500.416 49.4656 498.065 50.9612 495.059C52.4568 492.052 52.7939 488.601 51.9083 485.362C51.0227 482.124 48.9763 479.324 46.1592 477.497L44.5553 482.897L43.418 476.127C43.4067 476.122 43.3951 476.118 43.3832 476.114C41.6948 475.5 39.9021 475.225 38.1073 475.304C36.3126 475.384 34.551 475.816 32.9234 476.576C31.2957 477.336 29.8338 478.41 28.6213 479.736C27.4088 481.061 26.4693 482.613 25.8567 484.301C25.2441 485.99 24.9703 487.783 25.0509 489.578C25.1315 491.373 25.565 493.134 26.3266 494.761C27.0882 496.388 28.163 497.849 29.4895 499.061C30.816 500.272 32.3683 501.21 34.0576 501.822Z" fill="#57B894"/>
<path d="M34.7083 499.374C37.8647 500.519 41.332 500.463 44.4494 499.216C47.5668 497.968 50.1163 495.618 51.6119 492.611C53.1075 489.605 53.4446 486.154 52.559 482.915C51.6734 479.676 49.627 476.877 46.8099 475.05L45.206 480.45L44.0686 473.68C44.0574 473.675 44.0458 473.67 44.0338 473.667C42.3459 473.055 40.5538 472.781 38.76 472.861C36.9662 472.941 35.2058 473.374 33.5792 474.135C30.2942 475.671 27.754 478.449 26.5174 481.858C25.2807 485.267 25.4489 489.028 26.985 492.313C28.5211 495.597 31.2992 498.138 34.7083 499.374V499.374Z" stroke="#454547" stroke-miterlimit="10"/>
<path d="M19.8219 524.53C20.3646 527.618 21.9526 530.426 24.3197 532.482C26.6867 534.538 29.6888 535.718 32.8225 535.823C35.9561 535.929 39.0308 534.954 41.5308 533.061C44.0308 531.169 45.8041 528.475 46.5533 525.43C47.3026 522.385 46.9822 519.176 45.6458 516.339C44.3095 513.503 42.0385 511.212 39.2137 509.852C36.389 508.491 33.1822 508.143 30.1313 508.866C27.0803 509.589 24.3707 511.339 22.4569 513.822L28.5492 522.992L20.2248 518.125C19.5794 520.197 19.4412 522.393 19.8219 524.53Z" fill="#57B894"/>
<path d="M20.3851 522.718C20.9278 525.806 22.5159 528.614 24.8829 530.67C27.25 532.726 30.252 533.906 33.3857 534.011C36.5194 534.117 39.594 533.142 42.094 531.249C44.594 529.357 46.3673 526.663 47.1166 523.618C47.8658 520.573 47.5454 517.364 46.2091 514.527C44.8727 511.691 42.6017 509.4 39.777 508.039C36.9522 506.679 33.7454 506.331 30.6945 507.054C27.6435 507.777 24.9339 509.527 23.0201 512.01L29.1124 521.18L20.788 516.313C20.1426 518.385 20.0044 520.581 20.3851 522.718V522.718Z" stroke="#454547" stroke-miterlimit="10"/>
<path d="M480.946 341.116C490.335 341.116 497.946 331.266 497.946 319.116C497.946 306.965 490.335 297.116 480.946 297.116C471.557 297.116 463.946 306.965 463.946 319.116C463.946 331.266 471.557 341.116 480.946 341.116Z" fill="#454547"/>
<path d="M573.446 341.616C582.835 341.616 590.446 331.766 590.446 319.616C590.446 307.465 582.835 297.616 573.446 297.616C564.057 297.616 556.446 307.465 556.446 319.616C556.446 331.766 564.057 341.616 573.446 341.616Z" fill="#454547"/>
<path d="M560.446 384.616C560.446 394.556 546.566 402.616 529.446 402.616C512.326 402.616 498.446 394.556 498.446 384.616C498.446 376.006 508.856 368.806 522.766 367.046C524.981 366.753 527.212 366.61 529.446 366.616C533.189 366.603 536.922 367.006 540.576 367.816C552.196 370.406 560.446 376.956 560.446 384.616Z" fill="#454547"/>
<path d="M484.946 336.116C494.335 336.116 501.946 326.266 501.946 314.116C501.946 301.965 494.335 292.116 484.946 292.116C475.557 292.116 467.946 301.965 467.946 314.116C467.946 326.266 475.557 336.116 484.946 336.116Z" stroke="#454547" stroke-miterlimit="10"/>
<path d="M577.446 336.616C586.835 336.616 594.446 326.766 594.446 314.616C594.446 302.465 586.835 292.616 577.446 292.616C568.057 292.616 560.446 302.465 560.446 314.616C560.446 326.766 568.057 336.616 577.446 336.616Z" stroke="#454547" stroke-miterlimit="10"/>
<path d="M533.446 397.616C550.567 397.616 564.446 389.557 564.446 379.616C564.446 369.674 550.567 361.616 533.446 361.616C516.325 361.616 502.446 369.674 502.446 379.616C502.446 389.557 516.325 397.616 533.446 397.616Z" stroke="#454547" stroke-miterlimit="10"/>
<path d="M540.946 369.316C540.954 370.573 540.482 371.786 539.626 372.708C539.222 373.149 538.73 373.502 538.183 373.744C537.636 373.986 537.044 374.113 536.446 374.116H526.446C525.214 374.073 524.049 373.544 523.205 372.644C522.362 371.745 521.909 370.548 521.946 369.316C521.941 368.341 522.226 367.386 522.766 366.574C524.979 366.263 527.211 366.109 529.446 366.116C533.193 366.103 536.929 366.533 540.576 367.396C540.823 368.005 540.948 368.658 540.946 369.316Z" fill="white"/>
<path d="M484.946 313.116C487.707 313.116 489.946 310.877 489.946 308.116C489.946 305.354 487.707 303.116 484.946 303.116C482.185 303.116 479.946 305.354 479.946 308.116C479.946 310.877 482.185 313.116 484.946 313.116Z" fill="white"/>
<path d="M577.946 313.116C580.707 313.116 582.946 310.877 582.946 308.116C582.946 305.354 580.707 303.116 577.946 303.116C575.185 303.116 572.946 305.354 572.946 308.116C572.946 310.877 575.185 313.116 577.946 313.116Z" fill="white"/>
<path opacity="0.3" d="M582.946 360.116C585.707 360.116 587.946 357.877 587.946 355.116C587.946 352.354 585.707 350.116 582.946 350.116C580.185 350.116 577.946 352.354 577.946 355.116C577.946 357.877 580.185 360.116 582.946 360.116Z" fill="#5F66F1"/>
<path opacity="0.3" d="M460.946 360.116C463.707 360.116 465.946 357.877 465.946 355.116C465.946 352.354 463.707 350.116 460.946 350.116C458.185 350.116 455.946 352.354 455.946 355.116C455.946 357.877 458.185 360.116 460.946 360.116Z" fill="#5F66F1"/>
</g>
<path d="M180.778 652H175.876L161.127 629.683V652H156.225V622.072H161.127L175.876 644.346V622.072H180.778V652ZM196.417 652.387C194.181 652.387 192.16 651.885 190.354 650.882C188.548 649.85 187.129 648.417 186.097 646.582C185.065 644.719 184.549 642.569 184.549 640.132C184.549 637.724 185.08 635.588 186.14 633.725C187.201 631.862 188.649 630.428 190.483 629.425C192.318 628.422 194.368 627.92 196.632 627.92C198.897 627.92 200.947 628.422 202.781 629.425C204.616 630.428 206.064 631.862 207.124 633.725C208.185 635.588 208.715 637.724 208.715 640.132C208.715 642.54 208.171 644.676 207.081 646.539C205.992 648.402 204.501 649.85 202.609 650.882C200.746 651.885 198.682 652.387 196.417 652.387ZM196.417 648.13C197.679 648.13 198.854 647.829 199.943 647.227C201.061 646.625 201.964 645.722 202.652 644.518C203.34 643.314 203.684 641.852 203.684 640.132C203.684 638.412 203.355 636.964 202.695 635.789C202.036 634.585 201.162 633.682 200.072 633.08C198.983 632.478 197.808 632.177 196.546 632.177C195.285 632.177 194.11 632.478 193.02 633.08C191.96 633.682 191.114 634.585 190.483 635.789C189.853 636.964 189.537 638.412 189.537 640.132C189.537 642.683 190.182 644.661 191.472 646.066C192.791 647.442 194.439 648.13 196.417 648.13ZM220.947 636.993C220.947 634.069 221.621 631.446 222.968 629.124C224.344 626.802 226.193 624.996 228.515 623.706C230.866 622.387 233.431 621.728 236.212 621.728C239.394 621.728 242.218 622.516 244.683 624.093C247.177 625.641 248.983 627.848 250.101 630.715H244.21C243.436 629.138 242.361 627.963 240.985 627.189C239.609 626.415 238.018 626.028 236.212 626.028C234.234 626.028 232.471 626.472 230.923 627.361C229.375 628.25 228.157 629.525 227.268 631.188C226.408 632.851 225.978 634.786 225.978 636.993C225.978 639.2 226.408 641.135 227.268 642.798C228.157 644.461 229.375 645.751 230.923 646.668C232.471 647.557 234.234 648.001 236.212 648.001C238.018 648.001 239.609 647.614 240.985 646.84C242.361 646.066 243.436 644.891 244.21 643.314H250.101C248.983 646.181 247.177 648.388 244.683 649.936C242.218 651.484 239.394 652.258 236.212 652.258C233.403 652.258 230.837 651.613 228.515 650.323C226.193 649.004 224.344 647.184 222.968 644.862C221.621 642.54 220.947 639.917 220.947 636.993ZM253.13 640.046C253.13 637.667 253.617 635.56 254.592 633.725C255.595 631.89 256.943 630.471 258.634 629.468C260.354 628.436 262.246 627.92 264.31 627.92C266.173 627.92 267.793 628.293 269.169 629.038C270.574 629.755 271.692 630.658 272.523 631.747V628.307H277.468V652H272.523V648.474C271.692 649.592 270.559 650.524 269.126 651.269C267.693 652.014 266.059 652.387 264.224 652.387C262.189 652.387 260.325 651.871 258.634 650.839C256.943 649.778 255.595 648.316 254.592 646.453C253.617 644.561 253.13 642.425 253.13 640.046ZM272.523 640.132C272.523 638.498 272.179 637.079 271.491 635.875C270.832 634.671 269.957 633.754 268.868 633.123C267.779 632.492 266.603 632.177 265.342 632.177C264.081 632.177 262.905 632.492 261.816 633.123C260.727 633.725 259.838 634.628 259.15 635.832C258.491 637.007 258.161 638.412 258.161 640.046C258.161 641.68 258.491 643.113 259.15 644.346C259.838 645.579 260.727 646.525 261.816 647.184C262.934 647.815 264.109 648.13 265.342 648.13C266.603 648.13 267.779 647.815 268.868 647.184C269.957 646.553 270.832 645.636 271.491 644.432C272.179 643.199 272.523 641.766 272.523 640.132ZM311.512 627.92C313.376 627.92 315.038 628.307 316.5 629.081C317.991 629.855 319.152 631.002 319.983 632.521C320.843 634.04 321.273 635.875 321.273 638.025V652H316.414V638.756C316.414 636.635 315.884 635.015 314.823 633.897C313.763 632.75 312.315 632.177 310.48 632.177C308.646 632.177 307.184 632.75 306.094 633.897C305.034 635.015 304.503 636.635 304.503 638.756V652H299.644V638.756C299.644 636.635 299.114 635.015 298.053 633.897C296.993 632.75 295.545 632.177 293.71 632.177C291.876 632.177 290.414 632.75 289.324 633.897C288.264 635.015 287.733 636.635 287.733 638.756V652H282.831V628.307H287.733V631.016C288.536 630.041 289.554 629.282 290.786 628.737C292.019 628.192 293.338 627.92 294.742 627.92C296.634 627.92 298.326 628.321 299.816 629.124C301.307 629.927 302.454 631.088 303.256 632.607C303.973 631.174 305.091 630.041 306.61 629.21C308.13 628.35 309.764 627.92 311.512 627.92ZM331.338 631.79C332.169 630.701 333.302 629.783 334.735 629.038C336.168 628.293 337.788 627.92 339.594 627.92C341.658 627.92 343.536 628.436 345.227 629.468C346.947 630.471 348.294 631.89 349.269 633.725C350.244 635.56 350.731 637.667 350.731 640.046C350.731 642.425 350.244 644.561 349.269 646.453C348.294 648.316 346.947 649.778 345.227 650.839C343.536 651.871 341.658 652.387 339.594 652.387C337.788 652.387 336.183 652.029 334.778 651.312C333.373 650.567 332.227 649.649 331.338 648.56V663.266H326.436V628.307H331.338V631.79ZM345.743 640.046C345.743 638.412 345.399 637.007 344.711 635.832C344.052 634.628 343.163 633.725 342.045 633.123C340.956 632.492 339.78 632.177 338.519 632.177C337.286 632.177 336.111 632.492 334.993 633.123C333.904 633.754 333.015 634.671 332.327 635.875C331.668 637.079 331.338 638.498 331.338 640.132C331.338 641.766 331.668 643.199 332.327 644.432C333.015 645.636 333.904 646.553 334.993 647.184C336.111 647.815 337.286 648.13 338.519 648.13C339.78 648.13 340.956 647.815 342.045 647.184C343.163 646.525 344.052 645.579 344.711 644.346C345.399 643.113 345.743 641.68 345.743 640.046ZM352.87 640.046C352.87 637.667 353.357 635.56 354.332 633.725C355.335 631.89 356.682 630.471 358.374 629.468C360.094 628.436 361.986 627.92 364.05 627.92C365.913 627.92 367.533 628.293 368.909 629.038C370.313 629.755 371.431 630.658 372.263 631.747V628.307H377.208V652H372.263V648.474C371.431 649.592 370.299 650.524 368.866 651.269C367.432 652.014 365.798 652.387 363.964 652.387C361.928 652.387 360.065 651.871 358.374 650.839C356.682 649.778 355.335 648.316 354.332 646.453C353.357 644.561 352.87 642.425 352.87 640.046ZM372.263 640.132C372.263 638.498 371.919 637.079 371.231 635.875C370.571 634.671 369.697 633.754 368.608 633.123C367.518 632.492 366.343 632.177 365.082 632.177C363.82 632.177 362.645 632.492 361.556 633.123C360.466 633.725 359.578 634.628 358.89 635.832C358.23 637.007 357.901 638.412 357.901 640.046C357.901 641.68 358.23 643.113 358.89 644.346C359.578 645.579 360.466 646.525 361.556 647.184C362.674 647.815 363.849 648.13 365.082 648.13C366.343 648.13 367.518 647.815 368.608 647.184C369.697 646.553 370.571 645.636 371.231 644.432C371.919 643.199 372.263 641.766 372.263 640.132ZM385.065 625.168C384.177 625.168 383.431 624.867 382.829 624.265C382.227 623.663 381.926 622.918 381.926 622.029C381.926 621.14 382.227 620.395 382.829 619.793C383.431 619.191 384.177 618.89 385.065 618.89C385.925 618.89 386.656 619.191 387.258 619.793C387.86 620.395 388.161 621.14 388.161 622.029C388.161 622.918 387.86 623.663 387.258 624.265C386.656 624.867 385.925 625.168 385.065 625.168ZM387.473 628.307V652H382.571V628.307H387.473ZM402.38 627.92C404.215 627.92 405.835 628.293 407.239 629.038C408.673 629.755 409.791 630.658 410.593 631.747V628.307H415.538V652.387C415.538 654.566 415.08 656.501 414.162 658.192C413.245 659.912 411.912 661.259 410.163 662.234C408.443 663.209 406.379 663.696 403.971 663.696C400.761 663.696 398.095 662.936 395.973 661.417C393.852 659.926 392.648 657.891 392.361 655.311H397.22C397.593 656.544 398.381 657.533 399.585 658.278C400.818 659.052 402.28 659.439 403.971 659.439C405.949 659.439 407.54 658.837 408.744 657.633C409.977 656.429 410.593 654.68 410.593 652.387V648.431C409.762 649.549 408.63 650.495 407.196 651.269C405.792 652.014 404.186 652.387 402.38 652.387C400.316 652.387 398.424 651.871 396.704 650.839C395.013 649.778 393.666 648.316 392.662 646.453C391.688 644.561 391.2 642.425 391.2 640.046C391.2 637.667 391.688 635.56 392.662 633.725C393.666 631.89 395.013 630.471 396.704 629.468C398.424 628.436 400.316 627.92 402.38 627.92ZM410.593 640.132C410.593 638.498 410.249 637.079 409.561 635.875C408.902 634.671 408.028 633.754 406.938 633.123C405.849 632.492 404.674 632.177 403.412 632.177C402.151 632.177 400.976 632.492 399.886 633.123C398.797 633.725 397.908 634.628 397.22 635.832C396.561 637.007 396.231 638.412 396.231 640.046C396.231 641.68 396.561 643.113 397.22 644.346C397.908 645.579 398.797 646.525 399.886 647.184C401.004 647.815 402.18 648.13 403.412 648.13C404.674 648.13 405.849 647.815 406.938 647.184C408.028 646.553 408.902 645.636 409.561 644.432C410.249 643.199 410.593 641.766 410.593 640.132ZM432.856 627.92C434.719 627.92 436.382 628.307 437.844 629.081C439.334 629.855 440.495 631.002 441.327 632.521C442.158 634.04 442.574 635.875 442.574 638.025V652H437.715V638.756C437.715 636.635 437.184 635.015 436.124 633.897C435.063 632.75 433.615 632.177 431.781 632.177C429.946 632.177 428.484 632.75 427.395 633.897C426.334 635.015 425.804 636.635 425.804 638.756V652H420.902V628.307H425.804V631.016C426.606 630.041 427.624 629.282 428.857 628.737C430.118 628.192 431.451 627.92 432.856 627.92ZM456.352 652.387C454.488 652.387 452.811 652.057 451.321 651.398C449.859 650.71 448.698 649.793 447.838 648.646C446.978 647.471 446.519 646.166 446.462 644.733H451.536C451.622 645.736 452.095 646.582 452.955 647.27C453.843 647.929 454.947 648.259 456.266 648.259C457.642 648.259 458.702 648.001 459.448 647.485C460.222 646.94 460.609 646.252 460.609 645.421C460.609 644.532 460.179 643.873 459.319 643.443C458.487 643.013 457.154 642.54 455.32 642.024C453.542 641.537 452.095 641.064 450.977 640.605C449.859 640.146 448.884 639.444 448.053 638.498C447.25 637.552 446.849 636.305 446.849 634.757C446.849 633.496 447.221 632.349 447.967 631.317C448.712 630.256 449.773 629.425 451.149 628.823C452.553 628.221 454.159 627.92 455.965 627.92C458.659 627.92 460.824 628.608 462.458 629.984C464.12 631.331 465.009 633.18 465.124 635.531H460.222C460.136 634.47 459.706 633.625 458.932 632.994C458.158 632.363 457.111 632.048 455.793 632.048C454.503 632.048 453.514 632.292 452.826 632.779C452.138 633.266 451.794 633.911 451.794 634.714C451.794 635.345 452.023 635.875 452.482 636.305C452.94 636.735 453.499 637.079 454.159 637.337C454.818 637.566 455.793 637.867 457.083 638.24C458.803 638.699 460.207 639.172 461.297 639.659C462.415 640.118 463.375 640.806 464.178 641.723C464.98 642.64 465.396 643.859 465.425 645.378C465.425 646.725 465.052 647.929 464.307 648.99C463.561 650.051 462.501 650.882 461.125 651.484C459.777 652.086 458.186 652.387 456.352 652.387ZM478.107 640.046C478.107 637.667 478.595 635.56 479.569 633.725C480.573 631.89 481.92 630.471 483.611 629.468C485.331 628.436 487.223 627.92 489.287 627.92C491.151 627.92 492.77 628.293 494.146 629.038C495.551 629.755 496.669 630.658 497.5 631.747V628.307H502.445V652H497.5V648.474C496.669 649.592 495.537 650.524 494.103 651.269C492.67 652.014 491.036 652.387 489.201 652.387C487.166 652.387 485.303 651.871 483.611 650.839C481.92 649.778 480.573 648.316 479.569 646.453C478.595 644.561 478.107 642.425 478.107 640.046ZM497.5 640.132C497.5 638.498 497.156 637.079 496.468 635.875C495.809 634.671 494.935 633.754 493.845 633.123C492.756 632.492 491.581 632.177 490.319 632.177C489.058 632.177 487.883 632.492 486.793 633.123C485.704 633.725 484.815 634.628 484.127 635.832C483.468 637.007 483.138 638.412 483.138 640.046C483.138 641.68 483.468 643.113 484.127 644.346C484.815 645.579 485.704 646.525 486.793 647.184C487.911 647.815 489.087 648.13 490.319 648.13C491.581 648.13 492.756 647.815 493.845 647.184C494.935 646.553 495.809 645.636 496.468 644.432C497.156 643.199 497.5 641.766 497.5 640.132ZM516.968 647.614L523.676 628.307H528.879L519.849 652H514.001L505.014 628.307H510.26L516.968 647.614ZM529.875 640.046C529.875 637.667 530.363 635.56 531.337 633.725C532.341 631.89 533.688 630.471 535.379 629.468C537.099 628.436 538.991 627.92 541.055 627.92C542.919 627.92 544.538 628.293 545.914 629.038C547.319 629.755 548.437 630.658 549.268 631.747V628.307H554.213V652H549.268V648.474C548.437 649.592 547.305 650.524 545.871 651.269C544.438 652.014 542.804 652.387 540.969 652.387C538.934 652.387 537.071 651.871 535.379 650.839C533.688 649.778 532.341 648.316 531.337 646.453C530.363 644.561 529.875 642.425 529.875 640.046ZM549.268 640.132C549.268 638.498 548.924 637.079 548.236 635.875C547.577 634.671 546.703 633.754 545.613 633.123C544.524 632.492 543.349 632.177 542.087 632.177C540.826 632.177 539.651 632.492 538.561 633.123C537.472 633.725 536.583 634.628 535.895 635.832C535.236 637.007 534.906 638.412 534.906 640.046C534.906 641.68 535.236 643.113 535.895 644.346C536.583 645.579 537.472 646.525 538.561 647.184C539.679 647.815 540.855 648.13 542.087 648.13C543.349 648.13 544.524 647.815 545.613 647.184C546.703 646.553 547.577 645.636 548.236 644.432C548.924 643.199 549.268 641.766 549.268 640.132ZM562.071 625.168C561.182 625.168 560.437 624.867 559.835 624.265C559.233 623.663 558.932 622.918 558.932 622.029C558.932 621.14 559.233 620.395 559.835 619.793C560.437 619.191 561.182 618.89 562.071 618.89C562.931 618.89 563.662 619.191 564.264 619.793C564.866 620.395 565.167 621.14 565.167 622.029C565.167 622.918 564.866 623.663 564.264 624.265C563.662 624.867 562.931 625.168 562.071 625.168ZM564.479 628.307V652H559.577V628.307H564.479ZM574.742 620.18V652H569.84V620.18H574.742ZM578.469 640.046C578.469 637.667 578.956 635.56 579.931 633.725C580.934 631.89 582.281 630.471 583.973 629.468C585.693 628.436 587.585 627.92 589.649 627.92C591.512 627.92 593.132 628.293 594.508 629.038C595.912 629.755 597.03 630.658 597.862 631.747V628.307H602.807V652H597.862V648.474C597.03 649.592 595.898 650.524 594.465 651.269C593.031 652.014 591.397 652.387 589.563 652.387C587.527 652.387 585.664 651.871 583.973 650.839C582.281 649.778 580.934 648.316 579.931 646.453C578.956 644.561 578.469 642.425 578.469 640.046ZM597.862 640.132C597.862 638.498 597.518 637.079 596.83 635.875C596.17 634.671 595.296 633.754 594.207 633.123C593.117 632.492 591.942 632.177 590.681 632.177C589.419 632.177 588.244 632.492 587.155 633.123C586.065 633.725 585.177 634.628 584.489 635.832C583.829 637.007 583.5 638.412 583.5 640.046C583.5 641.68 583.829 643.113 584.489 644.346C585.177 645.579 586.065 646.525 587.155 647.184C588.273 647.815 589.448 648.13 590.681 648.13C591.942 648.13 593.117 647.815 594.207 647.184C595.296 646.553 596.17 645.636 596.83 644.432C597.518 643.199 597.862 641.766 597.862 640.132ZM613.072 631.833C613.903 630.686 615.036 629.755 616.469 629.038C617.931 628.293 619.551 627.92 621.328 627.92C623.421 627.92 625.313 628.422 627.004 629.425C628.695 630.428 630.028 631.862 631.003 633.725C631.978 635.56 632.465 637.667 632.465 640.046C632.465 642.425 631.978 644.561 631.003 646.453C630.028 648.316 628.681 649.778 626.961 650.839C625.27 651.871 623.392 652.387 621.328 652.387C619.493 652.387 617.859 652.029 616.426 651.312C615.021 650.595 613.903 649.678 613.072 648.56V652H608.17V620.18H613.072V631.833ZM627.477 640.046C627.477 638.412 627.133 637.007 626.445 635.832C625.786 634.628 624.897 633.725 623.779 633.123C622.69 632.492 621.514 632.177 620.253 632.177C619.02 632.177 617.845 632.492 616.727 633.123C615.638 633.754 614.749 634.671 614.061 635.875C613.402 637.079 613.072 638.498 613.072 640.132C613.072 641.766 613.402 643.199 614.061 644.432C614.749 645.636 615.638 646.553 616.727 647.184C617.845 647.815 619.02 648.13 620.253 648.13C621.514 648.13 622.69 647.815 623.779 647.184C624.897 646.525 625.786 645.579 626.445 644.346C627.133 643.113 627.477 641.68 627.477 640.046ZM641.14 620.18V652H636.238V620.18H641.14ZM668.216 639.573C668.216 640.462 668.158 641.264 668.044 641.981H649.941C650.084 643.873 650.786 645.392 652.048 646.539C653.309 647.686 654.857 648.259 656.692 648.259C659.329 648.259 661.192 647.155 662.282 644.948H667.571C666.854 647.127 665.55 648.918 663.658 650.323C661.794 651.699 659.472 652.387 656.692 652.387C654.427 652.387 652.392 651.885 650.586 650.882C648.808 649.85 647.404 648.417 646.372 646.582C645.368 644.719 644.867 642.569 644.867 640.132C644.867 637.695 645.354 635.56 646.329 633.725C647.332 631.862 648.722 630.428 650.5 629.425C652.306 628.422 654.37 627.92 656.692 627.92C658.928 627.92 660.92 628.407 662.669 629.382C664.417 630.357 665.779 631.733 666.754 633.51C667.728 635.259 668.216 637.28 668.216 639.573ZM663.099 638.025C663.07 636.219 662.425 634.771 661.164 633.682C659.902 632.593 658.34 632.048 656.477 632.048C654.785 632.048 653.338 632.593 652.134 633.682C650.93 634.743 650.213 636.19 649.984 638.025H663.099ZM680.426 640.046C680.426 637.667 680.913 635.56 681.888 633.725C682.891 631.89 684.238 630.471 685.93 629.468C687.65 628.436 689.542 627.92 691.606 627.92C693.469 627.92 695.089 628.293 696.465 629.038C697.869 629.755 698.987 630.658 699.819 631.747V628.307H704.764V652H699.819V648.474C698.987 649.592 697.855 650.524 696.422 651.269C694.988 652.014 693.354 652.387 691.52 652.387C689.484 652.387 687.621 651.871 685.93 650.839C684.238 649.778 682.891 648.316 681.888 646.453C680.913 644.561 680.426 642.425 680.426 640.046ZM699.819 640.132C699.819 638.498 699.475 637.079 698.787 635.875C698.127 634.671 697.253 633.754 696.164 633.123C695.074 632.492 693.899 632.177 692.638 632.177C691.376 632.177 690.201 632.492 689.112 633.123C688.022 633.725 687.134 634.628 686.446 635.832C685.786 637.007 685.457 638.412 685.457 640.046C685.457 641.68 685.786 643.113 686.446 644.346C687.134 645.579 688.022 646.525 689.112 647.184C690.23 647.815 691.405 648.13 692.638 648.13C693.899 648.13 695.074 647.815 696.164 647.184C697.253 646.553 698.127 645.636 698.787 644.432C699.475 643.199 699.819 641.766 699.819 640.132ZM715.846 632.306V645.421C715.846 646.31 716.047 646.955 716.448 647.356C716.878 647.729 717.595 647.915 718.598 647.915H721.608V652H717.738C715.531 652 713.839 651.484 712.664 650.452C711.489 649.42 710.901 647.743 710.901 645.421V632.306H708.106V628.307H710.901V622.416H715.846V628.307H721.608V632.306H715.846ZM744.907 622.115C748.089 622.115 750.87 622.731 753.249 623.964C755.657 625.168 757.506 626.917 758.796 629.21C760.115 631.475 760.774 634.126 760.774 637.165C760.774 640.204 760.115 642.841 758.796 645.077C757.506 647.313 755.657 649.033 753.249 650.237C750.87 651.412 748.089 652 744.907 652H735.146V622.115H744.907ZM744.907 648.001C748.404 648.001 751.085 647.055 752.948 645.163C754.811 643.271 755.743 640.605 755.743 637.165C755.743 633.696 754.811 630.987 752.948 629.038C751.085 627.089 748.404 626.114 744.907 626.114H740.048V648.001H744.907ZM774.49 632.306H770.104V652H765.159V632.306H762.364V628.307H765.159V626.63C765.159 623.907 765.876 621.929 767.309 620.696C768.771 619.435 771.05 618.804 774.146 618.804V622.889C772.656 622.889 771.609 623.176 771.007 623.749C770.405 624.294 770.104 625.254 770.104 626.63V628.307H774.49V632.306ZM799.217 628.307V652H794.315V649.205C793.541 650.18 792.523 650.954 791.262 651.527C790.029 652.072 788.71 652.344 787.306 652.344C785.442 652.344 783.765 651.957 782.275 651.183C780.813 650.409 779.652 649.262 778.792 647.743C777.96 646.224 777.545 644.389 777.545 642.239V628.307H782.404V641.508C782.404 643.629 782.934 645.263 783.995 646.41C785.055 647.528 786.503 648.087 788.338 648.087C790.172 648.087 791.62 647.528 792.681 646.41C793.77 645.263 794.315 643.629 794.315 641.508V628.307H799.217ZM816.564 627.92C818.427 627.92 820.09 628.307 821.552 629.081C823.042 629.855 824.203 631.002 825.035 632.521C825.866 634.04 826.282 635.875 826.282 638.025V652H821.423V638.756C821.423 636.635 820.892 635.015 819.832 633.897C818.771 632.75 817.323 632.177 815.489 632.177C813.654 632.177 812.192 632.75 811.103 633.897C810.042 635.015 809.512 636.635 809.512 638.756V652H804.61V628.307H809.512V631.016C810.314 630.041 811.332 629.282 812.565 628.737C813.826 628.192 815.159 627.92 816.564 627.92ZM829.825 640.046C829.825 637.667 830.313 635.56 831.287 633.725C832.291 631.89 833.638 630.471 835.329 629.468C837.049 628.436 838.956 627.92 841.048 627.92C842.596 627.92 844.116 628.264 845.606 628.952C847.126 629.611 848.33 630.5 849.218 631.618V620.18H854.163V652H849.218V648.431C848.416 649.578 847.298 650.524 845.864 651.269C844.46 652.014 842.84 652.387 841.005 652.387C838.941 652.387 837.049 651.871 835.329 650.839C833.638 649.778 832.291 648.316 831.287 646.453C830.313 644.561 829.825 642.425 829.825 640.046ZM849.218 640.132C849.218 638.498 848.874 637.079 848.186 635.875C847.527 634.671 846.653 633.754 845.563 633.123C844.474 632.492 843.299 632.177 842.037 632.177C840.776 632.177 839.601 632.492 838.511 633.123C837.422 633.725 836.533 634.628 835.845 635.832C835.186 637.007 834.856 638.412 834.856 640.046C834.856 641.68 835.186 643.113 835.845 644.346C836.533 645.579 837.422 646.525 838.511 647.184C839.629 647.815 840.805 648.13 842.037 648.13C843.299 648.13 844.474 647.815 845.563 647.184C846.653 646.553 847.527 645.636 848.186 644.432C848.874 643.199 849.218 641.766 849.218 640.132ZM887.209 622.115V626.114H874.524V634.929H884.414V638.928H874.524V652H869.622V622.115H887.209ZM889.043 640.046C889.043 637.667 889.53 635.56 890.505 633.725C891.508 631.89 892.855 630.471 894.547 629.468C896.267 628.436 898.159 627.92 900.223 627.92C902.086 627.92 903.706 628.293 905.082 629.038C906.486 629.755 907.604 630.658 908.436 631.747V628.307H913.381V652H908.436V648.474C907.604 649.592 906.472 650.524 905.039 651.269C903.605 652.014 901.971 652.387 900.137 652.387C898.101 652.387 896.238 651.871 894.547 650.839C892.855 649.778 891.508 648.316 890.505 646.453C889.53 644.561 889.043 642.425 889.043 640.046ZM908.436 640.132C908.436 638.498 908.092 637.079 907.404 635.875C906.744 634.671 905.87 633.754 904.781 633.123C903.691 632.492 902.516 632.177 901.255 632.177C899.993 632.177 898.818 632.492 897.729 633.123C896.639 633.725 895.751 634.628 895.063 635.832C894.403 637.007 894.074 638.412 894.074 640.046C894.074 641.68 894.403 643.113 895.063 644.346C895.751 645.579 896.639 646.525 897.729 647.184C898.847 647.815 900.022 648.13 901.255 648.13C902.516 648.13 903.691 647.815 904.781 647.184C905.87 646.553 906.744 645.636 907.404 644.432C908.092 643.199 908.436 641.766 908.436 640.132ZM917.11 640.132C917.11 637.695 917.598 635.56 918.572 633.725C919.576 631.862 920.952 630.428 922.7 629.425C924.449 628.422 926.456 627.92 928.72 627.92C931.587 627.92 933.952 628.608 935.815 629.984C937.707 631.331 938.983 633.266 939.642 635.789H934.353C933.923 634.614 933.235 633.696 932.289 633.037C931.343 632.378 930.154 632.048 928.72 632.048C926.714 632.048 925.108 632.765 923.904 634.198C922.729 635.603 922.141 637.581 922.141 640.132C922.141 642.683 922.729 644.676 923.904 646.109C925.108 647.542 926.714 648.259 928.72 648.259C931.558 648.259 933.436 647.012 934.353 644.518H939.642C938.954 646.926 937.664 648.847 935.772 650.28C933.88 651.685 931.53 652.387 928.72 652.387C926.456 652.387 924.449 651.885 922.7 650.882C920.952 649.85 919.576 648.417 918.572 646.582C917.598 644.719 917.11 642.569 917.11 640.132ZM949.172 632.306V645.421C949.172 646.31 949.372 646.955 949.774 647.356C950.204 647.729 950.92 647.915 951.924 647.915H954.934V652H951.064C948.856 652 947.165 651.484 945.99 650.452C944.814 649.42 944.227 647.743 944.227 645.421V632.306H941.432V628.307H944.227V622.416H949.172V628.307H954.934V632.306H949.172ZM968.654 652.387C966.418 652.387 964.397 651.885 962.591 650.882C960.785 649.85 959.366 648.417 958.334 646.582C957.302 644.719 956.786 642.569 956.786 640.132C956.786 637.724 957.316 635.588 958.377 633.725C959.437 631.862 960.885 630.428 962.72 629.425C964.554 628.422 966.604 627.92 968.869 627.92C971.133 627.92 973.183 628.422 975.018 629.425C976.852 630.428 978.3 631.862 979.361 633.725C980.421 635.588 980.952 637.724 980.952 640.132C980.952 642.54 980.407 644.676 979.318 646.539C978.228 648.402 976.738 649.85 974.846 650.882C972.982 651.885 970.918 652.387 968.654 652.387ZM968.654 648.13C969.915 648.13 971.09 647.829 972.18 647.227C973.298 646.625 974.201 645.722 974.889 644.518C975.577 643.314 975.921 641.852 975.921 640.132C975.921 638.412 975.591 636.964 974.932 635.789C974.272 634.585 973.398 633.682 972.309 633.08C971.219 632.478 970.044 632.177 968.783 632.177C967.521 632.177 966.346 632.478 965.257 633.08C964.196 633.682 963.35 634.585 962.72 635.789C962.089 636.964 961.774 638.412 961.774 640.132C961.774 642.683 962.419 644.661 963.709 646.066C965.027 647.442 966.676 648.13 968.654 648.13ZM989.624 631.747C990.341 630.543 991.287 629.611 992.462 628.952C993.666 628.264 995.085 627.92 996.719 627.92V632.994H995.472C993.552 632.994 992.09 633.481 991.086 634.456C990.112 635.431 989.624 637.122 989.624 639.53V652H984.722V628.307H989.624V631.747ZM1021.48 628.307L1006.94 663.137H1001.87L1006.69 651.613L997.355 628.307H1002.82L1009.48 646.367L1016.4 628.307H1021.48ZM1026.08 652.301C1025.19 652.301 1024.45 652 1023.84 651.398C1023.24 650.796 1022.94 650.051 1022.94 649.162C1022.94 648.273 1023.24 647.528 1023.84 646.926C1024.45 646.324 1025.19 646.023 1026.08 646.023C1026.94 646.023 1027.67 646.324 1028.27 646.926C1028.88 647.528 1029.18 648.273 1029.18 649.162C1029.18 650.051 1028.88 650.796 1028.27 651.398C1027.67 652 1026.94 652.301 1026.08 652.301Z" fill="#5F66F1"/>
<path d="M311.476 718V696.672H317.496C319.352 696.672 320.992 697.082 322.418 697.902C323.844 698.723 324.942 699.89 325.714 701.403C326.495 702.917 326.891 704.655 326.9 706.618V707.98C326.9 709.992 326.51 711.755 325.729 713.269C324.957 714.782 323.849 715.944 322.403 716.755C320.968 717.565 319.293 717.98 317.379 718H311.476ZM314.288 698.986V715.7H317.247C319.415 715.7 321.1 715.026 322.301 713.679C323.512 712.331 324.117 710.412 324.117 707.922V706.677C324.117 704.255 323.546 702.375 322.403 701.037C321.271 699.689 319.659 699.006 317.569 698.986H314.288ZM330.021 709.929C330.021 708.376 330.323 706.979 330.929 705.739C331.544 704.499 332.394 703.542 333.478 702.868C334.571 702.194 335.816 701.857 337.213 701.857C339.371 701.857 341.114 702.604 342.442 704.099C343.78 705.593 344.449 707.58 344.449 710.061V710.251C344.449 711.794 344.151 713.181 343.556 714.411C342.97 715.632 342.125 716.584 341.021 717.268C339.928 717.951 338.668 718.293 337.242 718.293C335.094 718.293 333.351 717.546 332.013 716.052C330.685 714.558 330.021 712.58 330.021 710.119V709.929ZM332.745 710.251C332.745 712.009 333.15 713.42 333.961 714.484C334.781 715.549 335.875 716.081 337.242 716.081C338.619 716.081 339.713 715.544 340.523 714.47C341.334 713.386 341.739 711.872 341.739 709.929C341.739 708.19 341.324 706.784 340.494 705.71C339.674 704.626 338.58 704.084 337.213 704.084C335.875 704.084 334.796 704.616 333.976 705.681C333.155 706.745 332.745 708.269 332.745 710.251ZM360.475 714.03L364.166 702.15H367.066L360.694 720.446C359.708 723.083 358.141 724.401 355.992 724.401L355.479 724.357L354.469 724.167V721.97L355.201 722.028C356.119 722.028 356.832 721.843 357.34 721.472C357.857 721.101 358.282 720.422 358.614 719.436L359.215 717.824L353.561 702.15H356.52L360.475 714.03ZM368.546 709.929C368.546 708.376 368.849 706.979 369.454 705.739C370.069 704.499 370.919 703.542 372.003 702.868C373.097 702.194 374.342 701.857 375.738 701.857C377.896 701.857 379.64 702.604 380.968 704.099C382.306 705.593 382.975 707.58 382.975 710.061V710.251C382.975 711.794 382.677 713.181 382.081 714.411C381.495 715.632 380.65 716.584 379.547 717.268C378.453 717.951 377.193 718.293 375.768 718.293C373.619 718.293 371.876 717.546 370.538 716.052C369.21 714.558 368.546 712.58 368.546 710.119V709.929ZM371.271 710.251C371.271 712.009 371.676 713.42 372.486 714.484C373.307 715.549 374.4 716.081 375.768 716.081C377.145 716.081 378.238 715.544 379.049 714.47C379.859 713.386 380.265 711.872 380.265 709.929C380.265 708.19 379.85 706.784 379.02 705.71C378.199 704.626 377.105 704.084 375.738 704.084C374.4 704.084 373.321 704.616 372.501 705.681C371.681 706.745 371.271 708.269 371.271 710.251ZM396.158 716.433C395.104 717.673 393.556 718.293 391.515 718.293C389.825 718.293 388.536 717.805 387.647 716.828C386.769 715.842 386.324 714.387 386.314 712.463V702.15H389.024V712.39C389.024 714.792 390.001 715.993 391.954 715.993C394.024 715.993 395.401 715.222 396.085 713.679V702.15H398.795V718H396.217L396.158 716.433ZM424.4 714.265L427.447 702.15H430.157L425.543 718H423.346L419.493 705.988L415.743 718H413.546L408.946 702.15H411.642L414.762 714.016L418.453 702.15H420.636L424.4 714.265ZM442.711 718C442.555 717.688 442.428 717.131 442.33 716.33C441.07 717.639 439.566 718.293 437.818 718.293C436.256 718.293 434.972 717.854 433.966 716.975C432.97 716.086 432.472 714.963 432.472 713.605C432.472 711.955 433.097 710.676 434.347 709.768C435.606 708.85 437.374 708.391 439.649 708.391H442.286V707.146C442.286 706.198 442.003 705.446 441.437 704.89C440.87 704.323 440.035 704.04 438.932 704.04C437.965 704.04 437.154 704.284 436.5 704.772C435.846 705.261 435.519 705.852 435.519 706.545H432.794C432.794 705.754 433.072 704.992 433.629 704.26C434.195 703.518 434.957 702.932 435.914 702.502C436.881 702.072 437.94 701.857 439.093 701.857C440.919 701.857 442.35 702.316 443.385 703.234C444.42 704.143 444.957 705.397 444.996 706.999V714.294C444.996 715.749 445.182 716.906 445.553 717.766V718H442.711ZM438.214 715.935C439.063 715.935 439.869 715.715 440.631 715.275C441.393 714.836 441.944 714.265 442.286 713.562V710.31H440.162C436.842 710.31 435.182 711.281 435.182 713.225C435.182 714.074 435.465 714.738 436.031 715.217C436.598 715.695 437.325 715.935 438.214 715.935ZM451.808 702.15L451.896 704.143C453.106 702.619 454.688 701.857 456.642 701.857C459.991 701.857 461.681 703.747 461.71 707.526V718H459V707.512C458.99 706.369 458.727 705.524 458.209 704.978C457.701 704.431 456.905 704.157 455.821 704.157C454.942 704.157 454.171 704.392 453.507 704.86C452.843 705.329 452.325 705.944 451.954 706.706V718H449.244V702.15H451.808ZM469.474 698.312V702.15H472.433V704.245H469.474V714.074C469.474 714.709 469.605 715.188 469.869 715.51C470.133 715.822 470.582 715.979 471.217 715.979C471.529 715.979 471.959 715.92 472.506 715.803V718C471.793 718.195 471.1 718.293 470.426 718.293C469.215 718.293 468.302 717.927 467.687 717.194C467.071 716.462 466.764 715.422 466.764 714.074V704.245H463.878V702.15H466.764V698.312H469.474ZM486.729 698.312V702.15H489.688V704.245H486.729V714.074C486.729 714.709 486.861 715.188 487.125 715.51C487.389 715.822 487.838 715.979 488.473 715.979C488.785 715.979 489.215 715.92 489.762 715.803V718C489.049 718.195 488.355 718.293 487.682 718.293C486.471 718.293 485.558 717.927 484.942 717.194C484.327 716.462 484.02 715.422 484.02 714.074V704.245H481.134V702.15H484.02V698.312H486.729ZM491.856 709.929C491.856 708.376 492.159 706.979 492.765 705.739C493.38 704.499 494.229 703.542 495.313 702.868C496.407 702.194 497.652 701.857 499.049 701.857C501.207 701.857 502.95 702.604 504.278 704.099C505.616 705.593 506.285 707.58 506.285 710.061V710.251C506.285 711.794 505.987 713.181 505.392 714.411C504.806 715.632 503.961 716.584 502.857 717.268C501.764 717.951 500.504 718.293 499.078 718.293C496.93 718.293 495.187 717.546 493.849 716.052C492.521 714.558 491.856 712.58 491.856 710.119V709.929ZM494.581 710.251C494.581 712.009 494.986 713.42 495.797 714.484C496.617 715.549 497.711 716.081 499.078 716.081C500.455 716.081 501.549 715.544 502.359 714.47C503.17 713.386 503.575 711.872 503.575 709.929C503.575 708.19 503.16 706.784 502.33 705.71C501.51 704.626 500.416 704.084 499.049 704.084C497.711 704.084 496.632 704.616 495.812 705.681C494.991 706.745 494.581 708.269 494.581 710.251ZM523.482 716.081C524.449 716.081 525.294 715.788 526.017 715.202C526.739 714.616 527.14 713.884 527.218 713.005H529.781C529.732 713.913 529.42 714.777 528.844 715.598C528.268 716.418 527.496 717.072 526.529 717.561C525.572 718.049 524.557 718.293 523.482 718.293C521.324 718.293 519.605 717.575 518.326 716.14C517.057 714.694 516.422 712.722 516.422 710.222V709.768C516.422 708.225 516.705 706.853 517.271 705.651C517.838 704.45 518.648 703.518 519.703 702.854C520.768 702.189 522.022 701.857 523.468 701.857C525.245 701.857 526.72 702.39 527.892 703.454C529.073 704.519 529.703 705.9 529.781 707.6H527.218C527.14 706.574 526.749 705.734 526.046 705.08C525.353 704.416 524.493 704.084 523.468 704.084C522.091 704.084 521.021 704.582 520.26 705.578C519.508 706.564 519.132 707.995 519.132 709.87V710.383C519.132 712.209 519.508 713.615 520.26 714.602C521.012 715.588 522.086 716.081 523.482 716.081ZM540.489 704.582C540.079 704.514 539.635 704.479 539.156 704.479C537.379 704.479 536.173 705.236 535.538 706.75V718H532.828V702.15H535.465L535.509 703.981C536.397 702.565 537.657 701.857 539.288 701.857C539.815 701.857 540.216 701.926 540.489 702.062V704.582ZM549.278 718.293C547.13 718.293 545.382 717.59 544.034 716.184C542.687 714.768 542.013 712.878 542.013 710.515V710.017C542.013 708.444 542.311 707.043 542.906 705.812C543.512 704.572 544.352 703.605 545.426 702.912C546.51 702.209 547.682 701.857 548.941 701.857C551.002 701.857 552.604 702.536 553.746 703.894C554.889 705.251 555.46 707.194 555.46 709.724V710.852H544.723C544.762 712.414 545.216 713.679 546.085 714.646C546.964 715.603 548.077 716.081 549.425 716.081C550.382 716.081 551.192 715.886 551.856 715.495C552.521 715.104 553.102 714.587 553.6 713.942L555.255 715.231C553.927 717.272 551.935 718.293 549.278 718.293ZM548.941 704.084C547.848 704.084 546.93 704.484 546.188 705.285C545.445 706.076 544.986 707.189 544.811 708.625H552.75V708.42C552.672 707.043 552.301 705.979 551.637 705.227C550.973 704.465 550.074 704.084 548.941 704.084ZM568.395 718C568.238 717.688 568.111 717.131 568.014 716.33C566.754 717.639 565.25 718.293 563.502 718.293C561.939 718.293 560.655 717.854 559.649 716.975C558.653 716.086 558.155 714.963 558.155 713.605C558.155 711.955 558.78 710.676 560.03 709.768C561.29 708.85 563.058 708.391 565.333 708.391H567.97V707.146C567.97 706.198 567.687 705.446 567.12 704.89C566.554 704.323 565.719 704.04 564.615 704.04C563.648 704.04 562.838 704.284 562.184 704.772C561.529 705.261 561.202 705.852 561.202 706.545H558.478C558.478 705.754 558.756 704.992 559.312 704.26C559.879 703.518 560.641 702.932 561.598 702.502C562.564 702.072 563.624 701.857 564.776 701.857C566.603 701.857 568.033 702.316 569.068 703.234C570.104 704.143 570.641 705.397 570.68 706.999V714.294C570.68 715.749 570.865 716.906 571.236 717.766V718H568.395ZM563.897 715.935C564.747 715.935 565.553 715.715 566.314 715.275C567.076 714.836 567.628 714.265 567.97 713.562V710.31H565.846C562.525 710.31 560.865 711.281 560.865 713.225C560.865 714.074 561.148 714.738 561.715 715.217C562.281 715.695 563.009 715.935 563.897 715.935ZM578.604 698.312V702.15H581.563V704.245H578.604V714.074C578.604 714.709 578.736 715.188 579 715.51C579.264 715.822 579.713 715.979 580.348 715.979C580.66 715.979 581.09 715.92 581.637 715.803V718C580.924 718.195 580.23 718.293 579.557 718.293C578.346 718.293 577.433 717.927 576.817 717.194C576.202 716.462 575.895 715.422 575.895 714.074V704.245H573.009V702.15H575.895V698.312H578.604ZM591.319 718.293C589.171 718.293 587.423 717.59 586.075 716.184C584.728 714.768 584.054 712.878 584.054 710.515V710.017C584.054 708.444 584.352 707.043 584.947 705.812C585.553 704.572 586.393 703.605 587.467 702.912C588.551 702.209 589.723 701.857 590.982 701.857C593.043 701.857 594.645 702.536 595.787 703.894C596.93 705.251 597.501 707.194 597.501 709.724V710.852H586.764C586.803 712.414 587.257 713.679 588.126 714.646C589.005 715.603 590.118 716.081 591.466 716.081C592.423 716.081 593.233 715.886 593.897 715.495C594.562 715.104 595.143 714.587 595.641 713.942L597.296 715.231C595.968 717.272 593.976 718.293 591.319 718.293ZM590.982 704.084C589.889 704.084 588.971 704.484 588.229 705.285C587.486 706.076 587.027 707.189 586.852 708.625H594.791V708.42C594.713 707.043 594.342 705.979 593.678 705.227C593.014 704.465 592.115 704.084 590.982 704.084ZM613.277 714.03L616.969 702.15H619.869L613.497 720.446C612.511 723.083 610.943 724.401 608.795 724.401L608.282 724.357L607.271 724.167V721.97L608.004 722.028C608.922 722.028 609.635 721.843 610.143 721.472C610.66 721.101 611.085 720.422 611.417 719.436L612.018 717.824L606.363 702.15H609.322L613.277 714.03ZM621.349 709.929C621.349 708.376 621.651 706.979 622.257 705.739C622.872 704.499 623.722 703.542 624.806 702.868C625.899 702.194 627.145 701.857 628.541 701.857C630.699 701.857 632.442 702.604 633.771 704.099C635.108 705.593 635.777 707.58 635.777 710.061V710.251C635.777 711.794 635.479 713.181 634.884 714.411C634.298 715.632 633.453 716.584 632.35 717.268C631.256 717.951 629.996 718.293 628.57 718.293C626.422 718.293 624.679 717.546 623.341 716.052C622.013 714.558 621.349 712.58 621.349 710.119V709.929ZM624.073 710.251C624.073 712.009 624.479 713.42 625.289 714.484C626.109 715.549 627.203 716.081 628.57 716.081C629.947 716.081 631.041 715.544 631.852 714.47C632.662 713.386 633.067 711.872 633.067 709.929C633.067 708.19 632.652 706.784 631.822 705.71C631.002 704.626 629.908 704.084 628.541 704.084C627.203 704.084 626.124 704.616 625.304 705.681C624.483 706.745 624.073 708.269 624.073 710.251ZM648.961 716.433C647.906 717.673 646.358 718.293 644.317 718.293C642.628 718.293 641.339 717.805 640.45 716.828C639.571 715.842 639.127 714.387 639.117 712.463V702.15H641.827V712.39C641.827 714.792 642.804 715.993 644.757 715.993C646.827 715.993 648.204 715.222 648.888 713.679V702.15H651.598V718H649.02L648.961 716.433ZM663.39 704.582C662.979 704.514 662.535 704.479 662.057 704.479C660.279 704.479 659.073 705.236 658.438 706.75V718H655.729V702.15H658.365L658.409 703.981C659.298 702.565 660.558 701.857 662.188 701.857C662.716 701.857 663.116 701.926 663.39 702.062V704.582ZM679.693 716.081C680.66 716.081 681.505 715.788 682.228 715.202C682.95 714.616 683.351 713.884 683.429 713.005H685.992C685.943 713.913 685.631 714.777 685.055 715.598C684.479 716.418 683.707 717.072 682.74 717.561C681.783 718.049 680.768 718.293 679.693 718.293C677.535 718.293 675.816 717.575 674.537 716.14C673.268 714.694 672.633 712.722 672.633 710.222V709.768C672.633 708.225 672.916 706.853 673.482 705.651C674.049 704.45 674.859 703.518 675.914 702.854C676.979 702.189 678.233 701.857 679.679 701.857C681.456 701.857 682.931 702.39 684.103 703.454C685.284 704.519 685.914 705.9 685.992 707.6H683.429C683.351 706.574 682.96 705.734 682.257 705.08C681.563 704.416 680.704 704.084 679.679 704.084C678.302 704.084 677.232 704.582 676.471 705.578C675.719 706.564 675.343 707.995 675.343 709.87V710.383C675.343 712.209 675.719 713.615 676.471 714.602C677.223 715.588 678.297 716.081 679.693 716.081ZM691.588 702.15L691.661 703.908C692.823 702.541 694.391 701.857 696.363 701.857C698.58 701.857 700.089 702.707 700.89 704.406C701.417 703.645 702.101 703.029 702.94 702.561C703.79 702.092 704.791 701.857 705.943 701.857C709.42 701.857 711.188 703.698 711.246 707.38V718H708.536V707.541C708.536 706.408 708.277 705.563 707.76 705.007C707.242 704.44 706.373 704.157 705.152 704.157C704.146 704.157 703.312 704.46 702.647 705.065C701.983 705.661 701.598 706.467 701.49 707.482V718H698.766V707.614C698.766 705.31 697.638 704.157 695.382 704.157C693.604 704.157 692.389 704.914 691.734 706.428V718H689.024V702.15H691.588ZM725.133 718C724.977 717.688 724.85 717.131 724.752 716.33C723.492 717.639 721.988 718.293 720.24 718.293C718.678 718.293 717.394 717.854 716.388 716.975C715.392 716.086 714.894 714.963 714.894 713.605C714.894 711.955 715.519 710.676 716.769 709.768C718.028 708.85 719.796 708.391 722.071 708.391H724.708V707.146C724.708 706.198 724.425 705.446 723.858 704.89C723.292 704.323 722.457 704.04 721.354 704.04C720.387 704.04 719.576 704.284 718.922 704.772C718.268 705.261 717.94 705.852 717.94 706.545H715.216C715.216 705.754 715.494 704.992 716.051 704.26C716.617 703.518 717.379 702.932 718.336 702.502C719.303 702.072 720.362 701.857 721.515 701.857C723.341 701.857 724.771 702.316 725.807 703.234C726.842 704.143 727.379 705.397 727.418 706.999V714.294C727.418 715.749 727.604 716.906 727.975 717.766V718H725.133ZM720.636 715.935C721.485 715.935 722.291 715.715 723.053 715.275C723.814 714.836 724.366 714.265 724.708 713.562V710.31H722.584C719.264 710.31 717.604 711.281 717.604 713.225C717.604 714.074 717.887 714.738 718.453 715.217C719.02 715.695 719.747 715.935 720.636 715.935ZM745.055 710.251C745.055 712.663 744.503 714.606 743.399 716.081C742.296 717.556 740.802 718.293 738.917 718.293C736.993 718.293 735.479 717.683 734.376 716.462V724.094H731.666V702.15H734.142L734.273 703.908C735.377 702.541 736.91 701.857 738.873 701.857C740.777 701.857 742.281 702.575 743.385 704.011C744.498 705.446 745.055 707.443 745.055 710.002V710.251ZM742.345 709.943C742.345 708.156 741.964 706.745 741.202 705.71C740.44 704.675 739.396 704.157 738.067 704.157C736.427 704.157 735.196 704.885 734.376 706.34V713.913C735.187 715.358 736.427 716.081 738.097 716.081C739.396 716.081 740.426 715.568 741.188 714.543C741.959 713.508 742.345 711.975 742.345 709.943ZM758.297 718C758.141 717.688 758.014 717.131 757.916 716.33C756.656 717.639 755.152 718.293 753.404 718.293C751.842 718.293 750.558 717.854 749.552 716.975C748.556 716.086 748.058 714.963 748.058 713.605C748.058 711.955 748.683 710.676 749.933 709.768C751.192 708.85 752.96 708.391 755.235 708.391H757.872V707.146C757.872 706.198 757.589 705.446 757.022 704.89C756.456 704.323 755.621 704.04 754.518 704.04C753.551 704.04 752.74 704.284 752.086 704.772C751.432 705.261 751.104 705.852 751.104 706.545H748.38C748.38 705.754 748.658 704.992 749.215 704.26C749.781 703.518 750.543 702.932 751.5 702.502C752.467 702.072 753.526 701.857 754.679 701.857C756.505 701.857 757.936 702.316 758.971 703.234C760.006 704.143 760.543 705.397 760.582 706.999V714.294C760.582 715.749 760.768 716.906 761.139 717.766V718H758.297ZM753.8 715.935C754.649 715.935 755.455 715.715 756.217 715.275C756.979 714.836 757.53 714.265 757.872 713.562V710.31H755.748C752.428 710.31 750.768 711.281 750.768 713.225C750.768 714.074 751.051 714.738 751.617 715.217C752.184 715.695 752.911 715.935 753.8 715.935ZM767.774 718H765.064V702.15H767.774V718ZM764.845 697.946C764.845 697.507 764.977 697.136 765.24 696.833C765.514 696.53 765.914 696.379 766.441 696.379C766.969 696.379 767.369 696.53 767.643 696.833C767.916 697.136 768.053 697.507 768.053 697.946C768.053 698.386 767.916 698.752 767.643 699.045C767.369 699.338 766.969 699.484 766.441 699.484C765.914 699.484 765.514 699.338 765.24 699.045C764.977 698.752 764.845 698.386 764.845 697.946ZM771.48 709.943C771.48 707.473 772.052 705.51 773.194 704.055C774.337 702.59 775.851 701.857 777.735 701.857C779.669 701.857 781.178 702.541 782.262 703.908L782.394 702.15H784.869V717.619C784.869 719.67 784.259 721.286 783.038 722.468C781.827 723.649 780.196 724.24 778.146 724.24C777.003 724.24 775.885 723.996 774.791 723.508C773.697 723.02 772.862 722.351 772.286 721.501L773.692 719.875C774.854 721.311 776.275 722.028 777.955 722.028C779.273 722.028 780.299 721.657 781.031 720.915C781.773 720.173 782.145 719.128 782.145 717.78V716.418C781.061 717.668 779.581 718.293 777.706 718.293C775.851 718.293 774.347 717.546 773.194 716.052C772.052 714.558 771.48 712.521 771.48 709.943ZM774.205 710.251C774.205 712.038 774.571 713.444 775.304 714.47C776.036 715.485 777.062 715.993 778.38 715.993C780.089 715.993 781.344 715.217 782.145 713.664V706.428C781.314 704.914 780.069 704.157 778.409 704.157C777.091 704.157 776.061 704.67 775.318 705.695C774.576 706.721 774.205 708.239 774.205 710.251ZM791.534 702.15L791.622 704.143C792.833 702.619 794.415 701.857 796.368 701.857C799.718 701.857 801.407 703.747 801.437 707.526V718H798.727V707.512C798.717 706.369 798.453 705.524 797.936 704.978C797.428 704.431 796.632 704.157 795.548 704.157C794.669 704.157 793.897 704.392 793.233 704.86C792.569 705.329 792.052 705.944 791.681 706.706V718H788.971V702.15H791.534ZM808.702 711.994C808.722 710.832 808.854 709.914 809.098 709.24C809.342 708.566 809.84 707.819 810.592 706.999L812.511 705.021C813.331 704.094 813.741 703.098 813.741 702.033C813.741 701.008 813.473 700.207 812.936 699.631C812.398 699.045 811.617 698.752 810.592 698.752C809.596 698.752 808.795 699.016 808.189 699.543C807.584 700.07 807.281 700.778 807.281 701.667H804.571C804.591 700.085 805.152 698.811 806.256 697.844C807.369 696.867 808.814 696.379 810.592 696.379C812.438 696.379 813.873 696.877 814.898 697.873C815.934 698.859 816.451 700.217 816.451 701.945C816.451 703.654 815.66 705.339 814.078 706.999L812.481 708.581C811.769 709.372 811.412 710.51 811.412 711.994H808.702ZM808.585 716.638C808.585 716.198 808.717 715.832 808.98 715.539C809.254 715.236 809.654 715.085 810.182 715.085C810.709 715.085 811.109 715.236 811.383 715.539C811.656 715.832 811.793 716.198 811.793 716.638C811.793 717.077 811.656 717.443 811.383 717.736C811.109 718.02 810.709 718.161 810.182 718.161C809.654 718.161 809.254 718.02 808.98 717.736C808.717 717.443 808.585 717.077 808.585 716.638Z" fill="black" fill-opacity="0.74"/>
<defs>
<clipPath id="clip0">
<rect width="1074.39" height="584.231" fill="white"/>
</clipPath>
</defs>
</svg>
