<svg width="72" height="72" viewBox="0 0 72 72" fill="none" xmlns="http://www.w3.org/2000/svg">
<path d="M66.7145 17.2178L70.2065 13.7263C70.7866 13.1457 70.9777 12.2811 70.6959 11.5104C70.4141 10.7391 69.7104 10.2019 68.892 10.1327L62.4139 9.58612L61.8673 3.10803C61.7986 2.2901 61.2609 1.58643 60.4902 1.30463C59.7195 1.02228 58.8549 1.21344 58.2742 1.79407L54.7822 5.28552C49.1353 1.82318 42.6786 0 36 0C26.3842 0 17.3436 3.74469 10.5441 10.5441C3.74469 17.3436 0 26.3842 0 36C0 45.6158 3.74469 54.6564 10.5441 61.4559C17.3436 68.2553 26.3842 72 36 72C45.6158 72 54.6564 68.2553 61.4559 61.4559C68.2553 54.6564 72 45.6158 72 36C72 29.3214 70.1768 22.8653 66.7145 17.2178ZM58.3594 11.7158C58.4462 12.7408 59.2592 13.5538 60.2842 13.6406L64.0113 13.9548L58.9664 18.9998L53.4644 18.5356L53.0002 13.0336L58.0452 7.98871L58.3594 11.7158ZM43.1719 36C43.1719 39.9545 39.9545 43.1719 36 43.1719C32.0455 43.1719 28.8281 39.9545 28.8281 36C28.8281 32.0455 32.0455 28.8281 36 28.8281C37.2112 28.8281 38.3522 29.1308 39.3536 29.6631L34.5086 34.5086C33.6846 35.332 33.6846 36.6674 34.5086 37.4914C34.92 37.9034 35.46 38.1094 36 38.1094C36.54 38.1094 37.08 37.9034 37.4914 37.4914L42.3369 32.6464C42.8692 33.6478 43.1719 34.7888 43.1719 36ZM42.4199 26.5968C40.5906 25.3444 38.3796 24.6094 36 24.6094C29.7191 24.6094 24.6094 29.7191 24.6094 36C24.6094 42.2809 29.7191 47.3906 36 47.3906C42.2809 47.3906 47.3906 42.2809 47.3906 36C47.3906 33.6204 46.6556 31.4094 45.4032 29.5801L51.4259 23.5574C54.1774 26.9621 55.8281 31.2918 55.8281 36C55.8281 46.933 46.933 55.8281 36 55.8281C25.067 55.8281 16.1719 46.933 16.1719 36C16.1719 25.067 25.067 16.1719 36 16.1719C40.7082 16.1719 45.0379 17.8226 48.4426 20.5741L42.4199 26.5968ZM58.4725 58.4725C52.4702 64.4755 44.4891 67.7812 36 67.7812C27.5109 67.7812 19.5298 64.4755 13.5275 58.4725C7.52454 52.4702 4.21875 44.4891 4.21875 36C4.21875 27.5109 7.52454 19.5298 13.5275 13.5275C19.5298 7.52454 27.5109 4.21875 36 4.21875C41.5536 4.21875 46.933 5.64532 51.7039 8.36389L49.3248 10.743C48.9402 11.1275 48.7211 11.6428 48.7073 12.1805C48.7057 12.2574 48.7079 12.3344 48.7139 12.4118L48.9979 15.7775C45.2477 13.3583 40.7851 11.9531 36 11.9531C22.7406 11.9531 11.9531 22.7406 11.9531 36C11.9531 49.2594 22.7406 60.0469 36 60.0469C49.2594 60.0469 60.0469 49.2594 60.0469 36C60.0469 31.2149 58.6417 26.7523 56.2225 23.0021L59.5882 23.2861C59.6475 23.2905 59.7068 23.2932 59.7656 23.2932C59.7755 23.2932 59.7859 23.2921 59.7958 23.2916C59.8239 23.2916 59.8513 23.2894 59.8793 23.2877C59.9249 23.285 59.9711 23.2822 60.0161 23.2767C60.0441 23.2729 60.0721 23.2685 60.1002 23.2641C60.1447 23.257 60.1886 23.2487 60.2325 23.2388C60.2606 23.2322 60.288 23.2251 60.3155 23.218C60.3583 23.2064 60.4006 23.1932 60.4429 23.179C60.4704 23.1696 60.4973 23.1603 60.5242 23.1498C60.5654 23.1339 60.6061 23.1163 60.6467 23.0971C60.6725 23.0856 60.6984 23.074 60.7242 23.0609C60.7648 23.04 60.8044 23.0169 60.8434 22.9938C60.867 22.9796 60.8906 22.9664 60.9137 22.9521C60.9554 22.9246 60.9955 22.895 61.0356 22.8647C61.0543 22.8505 61.0735 22.8378 61.0917 22.823C61.1488 22.7769 61.2043 22.728 61.257 22.6752L63.6361 20.2961C66.3547 25.067 67.7812 30.4464 67.7812 36C67.7812 44.4891 64.4755 52.4702 58.4725 58.4725Z" fill="#5F66F1"/>
</svg>
