<svg width="38" height="38" viewBox="0 0 38 38" fill="none" xmlns="http://www.w3.org/2000/svg">
<path d="M19 3.16666C11.1308 3.16666 4.75 9.54749 4.75 17.4167C4.75 24.0192 9.24667 29.5608 15.3425 31.1758L19 34.8333L22.6575 31.1758C28.7533 29.5608 33.25 24.0192 33.25 17.4167C33.25 9.54749 26.8692 3.16666 19 3.16666ZM19 6.33332C21.6283 6.33332 23.75 8.45499 23.75 11.0833C23.75 13.7117 21.6283 15.8333 19 15.8333C16.3717 15.8333 14.25 13.7117 14.25 11.0833C14.25 8.45499 16.3717 6.33332 19 6.33332ZM19 28.975C15.0417 28.975 11.5425 26.9483 9.5 23.8767C9.5475 20.7258 15.8333 19 19 19C22.1508 19 28.4525 20.7258 28.5 23.8767C26.4575 26.9483 22.9583 28.975 19 28.975Z" fill="#5F66F1"/>
</svg>
