<svg width="47" height="47" viewBox="0 0 47 47" fill="none" xmlns="http://www.w3.org/2000/svg">
<g clip-path="url(#clip0)">
<path d="M42.9087 3.7919C40.414 1.39699 37.0212 0.0998154 33.4288 0.0998154C29.8365 0.0998154 26.4438 1.39699 23.949 3.7919L0.598726 25.6454C0.199544 26.0446 0 26.4438 0 26.9427C0 27.4416 0.199544 27.9406 0.598726 28.2399C1.397 28.9385 2.69427 28.9385 3.39281 28.2399L26.7431 6.48626C28.5393 4.7899 30.9342 3.89181 33.4289 3.89181C35.9237 3.89181 38.3185 4.78981 40.1147 6.48617C41.9108 8.18252 42.9087 10.3779 42.9087 12.7728C42.9087 15.1677 41.9108 17.3631 40.1147 19.0594L16.7643 40.9129C16.6645 41.0127 16.5648 41.1125 16.465 41.2123C16.3652 41.3121 16.2654 41.3121 16.1656 41.4118C14.9682 42.6093 13.2718 43.208 11.4756 43.208C9.67944 43.208 8.0828 42.6093 6.78562 41.4118C4.19118 39.0169 4.19118 35.1252 6.78562 32.7303L27.8409 12.9723C27.8409 12.9723 27.8409 12.8725 27.9407 12.8725C27.9407 12.8725 28.0405 12.8725 28.0405 12.7727C29.4375 11.4754 31.9322 11.4754 33.3292 12.7727C34.826 14.1697 34.826 16.3651 33.3292 17.7621L12.2739 37.6199C11.8747 38.0191 11.6752 38.4182 11.6752 38.9172C11.6752 39.4162 11.8747 39.9151 12.2739 40.2145C12.6731 40.6137 13.172 40.8132 13.6709 40.8132C14.1698 40.8132 14.6688 40.6137 15.0679 40.2145L36.1231 20.4565C39.1167 17.6624 39.1167 13.0722 36.1231 10.1783C34.6263 8.78135 32.7303 8.0828 30.6348 8.0828C28.5392 8.0828 26.6433 8.88107 25.1465 10.1783C25.1465 10.1783 25.1465 10.2782 25.0467 10.2782C25.0467 10.2782 24.9469 10.2782 24.9469 10.378L4.09126 30.0361C2.09554 31.932 0.997908 34.4268 0.997908 37.0212C0.997908 39.7155 2.09554 42.2102 4.09136 44.0064C6.08708 45.9024 8.78135 46.9002 11.5754 46.9002C14.3695 46.9002 17.0638 45.9023 19.0595 44.0064C19.1593 43.9066 19.2591 43.8068 19.3589 43.707C19.4587 43.6072 19.5584 43.6072 19.6582 43.5075L43.0086 21.654C45.5033 19.2591 47.0001 16.0659 47.0001 12.6731C47.0001 9.28025 45.5032 6.1868 42.9087 3.7919Z" fill="#FF0200"/>
</g>
<defs>
<clipPath id="clip0">
<rect width="47" height="47" fill="white"/>
</clipPath>
</defs>
</svg>
