<svg width="39" height="39" viewBox="0 0 39 39" fill="none" xmlns="http://www.w3.org/2000/svg">
<path d="M19.5 27.625C21.2875 27.625 22.75 26.1625 22.75 24.375C22.75 22.5875 21.2875 21.125 19.5 21.125C17.7125 21.125 16.25 22.5875 16.25 24.375C16.25 26.1625 17.7125 27.625 19.5 27.625ZM29.25 13H27.625V9.75C27.625 5.265 23.985 1.625 19.5 1.625C15.015 1.625 11.375 5.265 11.375 9.75H14.4625C14.4625 6.97125 16.7212 4.7125 19.5 4.7125C22.2788 4.7125 24.5375 6.97125 24.5375 9.75V13H9.75C7.9625 13 6.5 14.4625 6.5 16.25V32.5C6.5 34.2875 7.9625 35.75 9.75 35.75H29.25C31.0375 35.75 32.5 34.2875 32.5 32.5V16.25C32.5 14.4625 31.0375 13 29.25 13ZM29.25 32.5H9.75V16.25H29.25V32.5Z" fill="#5F66F1"/>
</svg>
