<svg width="34" height="34" viewBox="0 0 34 34" fill="none" xmlns="http://www.w3.org/2000/svg">
<path d="M0.668048 33.9009C1.037 33.9009 1.3361 33.6018 1.3361 33.2329C1.3361 32.8639 1.037 32.5648 0.668048 32.5648C0.299095 32.5648 0 32.8639 0 33.2329C0 33.6018 0.299095 33.9009 0.668048 33.9009Z" fill="white"/>
<path d="M17.7307 16.9567C18.0989 16.9567 18.3974 16.6582 18.3974 16.29C18.3974 15.9218 18.0989 15.6233 17.7307 15.6233C17.3625 15.6233 17.064 15.9218 17.064 16.29C17.064 16.6582 17.3625 16.9567 17.7307 16.9567Z" fill="white"/>
<path d="M26.4615 7.8381C25.9255 7.30207 25.2129 7.00696 24.455 7.00696C23.697 7.00696 22.9843 7.3022 22.4484 7.8381C21.3421 8.94456 21.3421 10.7448 22.4484 11.8512C23.0017 12.4045 23.7282 12.681 24.455 12.681C25.1815 12.681 25.9083 12.4043 26.4615 11.8512C27.5679 10.7448 27.5679 8.9445 26.4615 7.8381ZM25.5187 10.9083C24.9322 11.4948 23.9777 11.4948 23.3913 10.9083C22.8047 10.3218 22.8047 9.36744 23.3913 8.78087C23.6754 8.49672 24.0532 8.34027 24.455 8.34027C24.8568 8.34027 25.2345 8.49672 25.5187 8.78087C26.1052 9.36744 26.1052 10.3218 25.5187 10.9083Z" fill="white"/>
<path d="M8.32766 27.3228C7.99801 27.1587 7.59785 27.2929 7.43369 27.6225L6.63961 29.2172C6.29429 29.9106 5.59982 30.3742 4.82698 30.4271L3.9034 30.4903C3.74728 30.5007 3.64461 30.423 3.59713 30.3755C3.54965 30.328 3.47169 30.2251 3.48232 30.0691L3.54553 29.1456C3.59846 28.3729 4.06211 27.6783 4.75539 27.333L6.35007 26.5389C6.67972 26.3748 6.81386 25.9745 6.6497 25.6449C6.48561 25.3154 6.08538 25.1812 5.75574 25.3453L4.16105 26.1394C3.04596 26.6947 2.30035 27.8117 2.21522 29.0545L2.152 29.978C2.11786 30.4765 2.30088 30.965 2.65416 31.3183C2.97942 31.6436 3.41936 31.8246 3.87624 31.8246C3.91548 31.8246 3.955 31.8233 3.99444 31.8205L4.91802 31.7573C6.16088 31.6723 7.27784 30.9267 7.83313 29.8115L8.62722 28.2168C8.79137 27.8872 8.65723 27.487 8.32766 27.3228Z" fill="white"/>
<path d="M33.5397 0.543221C33.2268 0.235029 32.7958 0.0738605 32.3581 0.102349L31.7373 0.141927C26.1712 0.497268 20.9621 3.184 17.4457 7.5133L15.9845 9.31218L12.1606 9.19989C12.1541 9.19969 12.1475 9.19962 12.1411 9.19962C9.10842 9.19962 6.25726 10.3806 4.1128 12.525L0.196285 16.4416C0.0100149 16.6278 -0.0491532 16.9064 0.0454095 17.1523C0.139972 17.3982 0.370402 17.5654 0.633504 17.5788L8.92394 18.0047L8.58593 18.4209C8.4156 18.6307 8.38864 18.9224 8.5178 19.1598C8.64769 19.3986 8.78382 19.6336 8.9258 19.8648L6.95977 22.1988C6.7917 22.3984 6.75551 22.6777 6.867 22.9135C7.29645 23.821 7.86642 24.6363 8.5613 25.3369C9.27304 26.0546 10.1053 26.6415 11.0349 27.0815C11.1257 27.1245 11.2231 27.1455 11.32 27.1455C11.4701 27.1455 11.619 27.0948 11.7401 26.9966C12.1636 26.653 12.6519 26.2455 13.1242 25.8514C13.4608 25.5705 13.8052 25.2832 14.1271 25.0182C14.3192 25.1338 14.5137 25.2459 14.7111 25.3533C14.811 25.4076 14.9205 25.4344 15.0296 25.4344C15.1748 25.4344 15.319 25.3871 15.4384 25.2944L15.8928 24.9418L16.3206 33.2672C16.3342 33.5303 16.5013 33.7607 16.7471 33.8552C16.825 33.8851 16.9059 33.8997 16.9862 33.8997C17.1599 33.8997 17.3304 33.8318 17.4578 33.7044L21.3743 29.7878C23.5188 27.6433 24.6997 24.7922 24.6997 21.7595V18.1075L26.2448 16.9085C30.8752 13.3153 33.6953 7.89693 33.9819 2.04268L33.9978 1.71822C34.0194 1.27967 33.8524 0.851479 33.5397 0.543221ZM2.19937 16.3242L5.05564 13.4679C6.9459 11.5776 9.45858 10.5356 12.1314 10.533L14.9261 10.6151L9.96493 16.7231L2.19937 16.3242ZM12.27 24.8276C11.9219 25.118 11.5651 25.4157 11.234 25.6881C10.5936 25.3412 10.0143 24.9085 9.50799 24.3979C9.01764 23.9035 8.60028 23.3406 8.26373 22.7205L9.70315 21.0117C10.1384 21.5956 10.6148 22.1487 11.1294 22.6668C11.1298 22.6672 11.1302 22.6676 11.1306 22.668C11.1308 22.6681 11.1309 22.6683 11.131 22.6684C11.1312 22.6686 11.1314 22.6688 11.1316 22.669C11.7023 23.2432 12.316 23.7702 12.9672 24.2468C12.7373 24.4377 12.5017 24.6343 12.27 24.8276ZM23.3665 21.7595C23.3665 24.436 22.3243 26.9523 20.4316 28.845L17.5754 31.7012L17.1768 23.9455L23.3665 19.1423V21.7595H23.3665ZM32.6503 1.97753C32.3828 7.44258 29.7502 12.5008 25.4275 15.8551L14.9712 23.9693C14.104 23.4626 13.2958 22.8643 12.5561 22.1865L16.0814 18.6613C16.3417 18.401 16.3417 17.9787 16.0814 17.7184C15.821 17.458 15.3988 17.458 15.1384 17.7184L11.6165 21.2403C10.969 20.5234 10.3955 19.7434 9.90722 18.9092L18.4807 8.35394C21.7633 4.31251 26.6261 1.80434 31.8222 1.47271L32.443 1.43313C32.5243 1.42809 32.5788 1.46846 32.6039 1.49316C32.6289 1.5178 32.6703 1.57139 32.6663 1.65314L32.6503 1.97753Z" fill="white"/>
</svg>
