<svg width="39" height="39" viewBox="0 0 39 39" fill="none" xmlns="http://www.w3.org/2000/svg">
<path d="M19.5 3.25C11.4238 3.25 4.875 9.79875 4.875 17.875C4.875 24.6513 9.49 30.3388 15.7462 31.9963L19.5 35.75L23.2537 31.9963C29.51 30.3388 34.125 24.6513 34.125 17.875C34.125 9.79875 27.5763 3.25 19.5 3.25ZM19.5 6.5C22.1975 6.5 24.375 8.6775 24.375 11.375C24.375 14.0725 22.1975 16.25 19.5 16.25C16.8025 16.25 14.625 14.0725 14.625 11.375C14.625 8.6775 16.8025 6.5 19.5 6.5ZM19.5 29.7375C15.4375 29.7375 11.8463 27.6575 9.75 24.505C9.79875 21.2712 16.25 19.5 19.5 19.5C22.7337 19.5 29.2013 21.2712 29.25 24.505C27.1537 27.6575 23.5625 29.7375 19.5 29.7375Z" fill="#5F66F1"/>
</svg>
