<svg width="39" height="39" viewBox="0 0 39 39" fill="none" xmlns="http://www.w3.org/2000/svg">
<path d="M34.125 29.25V30.875C34.125 32.6625 32.6625 34.125 30.875 34.125H8.125C6.32125 34.125 4.875 32.6625 4.875 30.875V8.125C4.875 6.3375 6.32125 4.875 8.125 4.875H30.875C32.6625 4.875 34.125 6.3375 34.125 8.125V9.75H19.5C17.6962 9.75 16.25 11.2125 16.25 13V26C16.25 27.7875 17.6962 29.25 19.5 29.25H34.125ZM19.5 26H35.75V13H19.5V26ZM26 21.9375C24.6513 21.9375 23.5625 20.8488 23.5625 19.5C23.5625 18.1512 24.6513 17.0625 26 17.0625C27.3487 17.0625 28.4375 18.1512 28.4375 19.5C28.4375 20.8488 27.3487 21.9375 26 21.9375Z" fill="#5F66F1"/>
</svg>
